<svg width="150" height="34" fill="none" xmlns="http://www.w3.org/2000/svg"><path fill="#681186" d="M0 0h80v34H0z"/><path d="M6.259 9.834h1.547l1.863 8.895c.223 1.253.375 2.15.457 2.689h.105c.293-1.406.48-2.303.563-2.69l2.127-8.894h1.512l2.162 8.895c.164.738.351 1.634.562 2.689h.07c.012-.117.17-1.014.475-2.69l1.881-8.894h1.547L18.036 23h-1.652l-2.127-8.79a318.32 318.32 0 01-.527-2.583h-.07c-.06.316-.159.785-.3 1.406-.14.621-.228 1.014-.263 1.178L11.005 23H9.353L6.259 9.834zM23.134 23V9.834h4.851c1.278 0 2.245.305 2.9.914.669.61 1.003 1.43 1.003 2.461 0 .703-.182 1.3-.545 1.793-.352.48-.803.844-1.354 1.09.668.199 1.23.586 1.688 1.16.468.574.703 1.266.703 2.074 0 1.008-.334 1.875-1.002 2.602-.656.715-1.576 1.072-2.76 1.072h-5.484zm1.406-1.195h3.727c.761 0 1.394-.217 1.898-.65.516-.446.774-1.05.774-1.811 0-.727-.253-1.33-.756-1.81-.493-.481-1.155-.721-1.987-.721H24.54v4.992zm0-6.17h3.2c.784 0 1.429-.194 1.933-.58.516-.387.773-.967.773-1.74 0-.68-.21-1.231-.633-1.653-.41-.422-1.078-.633-2.003-.633h-3.27v4.606zM39.481 23V9.834h4.957c1.278 0 2.286.351 3.024 1.055.75.703 1.125 1.634 1.125 2.795 0 1.195-.38 2.138-1.143 2.83-.761.691-1.763 1.037-3.006 1.037h-3.55V23H39.48zm1.407-6.627h3.34c.925 0 1.64-.223 2.144-.668.516-.457.773-1.13.773-2.021 0-.868-.257-1.524-.773-1.97-.504-.456-1.23-.685-2.18-.685h-3.304v5.344zm11.636-.264h3.551c.88 0 1.553-.234 2.022-.703.48-.469.72-1.09.72-1.863 0-.75-.252-1.353-.755-1.81-.493-.47-1.202-.704-2.127-.704h-3.41v5.08zM51.118 23V9.834h5.133c1.289 0 2.28.351 2.97 1.055.692.691 1.038 1.546 1.038 2.566 0 .926-.235 1.676-.703 2.25-.47.574-.985.938-1.547 1.09.492.258.85.574 1.072.95.223.374.404.896.545 1.564.152.656.258 1.107.316 1.353.07.235.188.574.352 1.02.176.445.387.884.633 1.318h-1.582a11.2 11.2 0 01-.545-1.195 14.04 14.04 0 01-.334-1.055 84.22 84.22 0 01-.317-1.336c-.152-.656-.386-1.172-.703-1.547-.304-.375-.797-.562-1.476-.562h-3.446V23h-1.406zm10.969-6.574c0-2.063.498-3.727 1.494-4.992.996-1.278 2.326-1.916 3.99-1.916 1.676 0 3 .632 3.973 1.898.984 1.266 1.477 2.941 1.477 5.027 0 2.11-.499 3.785-1.495 5.028-.984 1.23-2.302 1.845-3.955 1.845-1.664 0-2.994-.62-3.99-1.863-.996-1.254-1.494-2.93-1.494-5.027zm1.441 0c0 1.734.364 3.117 1.09 4.148.727 1.02 1.711 1.53 2.953 1.53 1.219 0 2.192-.504 2.918-1.512.727-1.008 1.09-2.39 1.09-4.149 0-1.734-.351-3.123-1.055-4.166-.703-1.043-1.687-1.564-2.953-1.564-1.242 0-2.226.516-2.953 1.547-.726 1.031-1.09 2.42-1.09 4.166z" fill="#000"/><path d="M96.57 9.76h-9.324v1.8h3.762V22h1.8V11.56h3.762v-1.8zm5.248 3.24h-5.256v9h1.8v-7.2h3.456V13zm8.434 7.2V13h-6.48v1.8h4.68v1.98c-.54-.54-1.242-.9-2.502-.9-2.196 0-3.222 1.404-3.222 3.06 0 1.656 1.026 3.06 3.222 3.06 1.26 0 1.962-.36 2.502-.9v.9h2.88v-1.8h-1.08zm-3.762 0c-1.314 0-1.962-.27-1.962-1.26s.648-1.26 1.962-1.26 1.962.27 1.962 1.26-.648 1.26-1.962 1.26zm6.635-10.8v1.8h1.8V9.4h-1.8zm0 3.6v9h1.8v-9h-1.8zm11.529 0h-7.56v9h1.8v-7.2h3.96V22h1.8v-9zm2.165-3.6v1.8h1.8V9.4h-1.8zm0 3.6v9h1.8v-9h-1.8zm11.528 0h-7.56v9h1.8v-7.2h3.96V22h1.8v-9zm8.429 0v1.08c-.54-.594-1.422-1.08-2.682-1.08-2.916 0-3.942 1.854-3.942 4.14 0 2.286 1.026 4.14 3.942 4.14 1.26 0 2.142-.486 2.682-1.08v2.88h-5.04v1.8h6.84V13h-1.8zm-2.412 6.48c-1.764 0-2.412-.54-2.412-2.34 0-1.8.648-2.34 2.412-2.34 1.764 0 2.412.54 2.412 2.34 0 1.8-.648 2.34-2.412 2.34z" fill="#fff"/></svg>