<svg width="2255" height="1015" fill="none" xmlns="http://www.w3.org/2000/svg"><g clip-path="url(#clip0)" stroke="#D469F9" stroke-width=".1" stroke-miterlimit="10"><path d="M856.071 593.336c194.689-177.251 513.049-166.73 644.379 155.969 83.66 205.895 168.23 31.817 307.28-92.542 388.9-347.4 230.54 92.348 423.5-271.126"/><path d="M855.375 591.95c192.105-177.427 508.545-169.53 643.635 157.005 85.34 207.096 163.99 25.666 304.9-98.629 387.21-343.382 238.92 100.187 431.63-258.591"/><path d="M854.883 590.852c189.527-177.601 503.557-172.47 642.667 158.234 87.02 208.296 160.53 20.003 302.3-104.517 386.55-338.551 247.75 107.634 439.66-247.124"/><path d="M854.403 589.731c186.707-177.58 499.767-175.312 641.867 159.251 88.92 209.294 156.58 14.197 299.96-110.068 385.33-334.39 256.31 115.255 447.68-235.143"/><path d="M853.726 588.323C1037.85 410.575 1348.97 410.22 1494.79 748.588c90.59 210.479 152.86 8.206 297.36-115.948 384.36-329.896 265.1 123.197 455.93-222.84"/><path d="M853.251 587.21c181.559-177.916 490.769-180.886 640.309 161.294 92.48 211.479 148.92 2.416 295-122.011 382.93-325.551 273.64 130.802 463.93-210.886"/><path d="M852.781 586.103c178.749-177.89 486.009-184.004 639.019 162.162 94.13 212.66 145.21-3.561 292.67-127.544 381.96-321.062 282.12 138.387 471.87-198.946"/><path d="M852.118 584.681c176.172-178.053 481.532-186.258 638.442 163.493 96.04 214.167 141.28-9.343 290.06-133.407 380.73-316.91 290.82 145.761 480.05-186.689"/><path d="M851.657 583.564c173.613-178.216 477.063-189.029 637.663 164.512 97.69 215.349 137.6-15.305 287.73-139.453 379.28-312.571 299.04 153.522 487.96-174.776"/><path d="M851 582.154c170.82-178.182 472.56-191.801 636.58 165.695 99.32 216.515 133.69-21.073 285.4-144.968 378.03-308.424 307.46 161.062 495.82-162.884"/><path d="M850.548 581.035c168.262-178.34 468.092-194.564 635.772 166.7 100.96 217.685 129.76-27.358 282.83-150.811 376.3-304.423 316.35 168.744 503.67-151.002"/><path d="M850.085 579.914c165.975-178.163 463.645-197.322 634.975 167.709 102.59 218.856 125.87-33.109 280.27-156.648 375.08-300.282 324.75 176.275 511.52-139.133"/><path d="M849.442 578.489C1012.63 400.365 1308.61 378.41 1483.32 747.372c104.21 220.013 121.99-38.854 278.19-162.335 373.6-295.949 333.09 183.778 519.56-126.952"/><path d="M848.999 577.375c160.641-178.277 454.231-202.97 633.071 169.887 106.06 220.985 118.35-44.784 275.64-168.159 372.1-292.147 341.43 191.282 527.35-115.114"/><path d="M848.561 576.256C1006.43 398.019 1298.36 370.542 1480.81 747.14c107.68 222.145 114.5-50.514 273.09-173.975 370.87-288.014 350.02 199.105 535.11-103.292"/><path d="M847.921 574.86c155.339-178.387 445.369-208.454 631.209 172.074 109.29 223.305 110.62-56.762 270.79-179.976 369.14-284.025 358.31 206.586 542.85-91.483"/><path d="M847.49 573.736c152.8-178.533 440.72-210.997 630.37 173.064 110.9 224.457 106.78-62.478 268.51-185.447 367.64-280.228 366.33 213.717 550.57-79.691"/><path d="M847.065 572.609c150.046-178.487 436.295-213.728 629.525 174.049 112.5 225.604 103.17-68.378 265.98-191.243 366.16-275.911 374.82 221.497 558.5-67.586"/><path d="M846.437 571.215c147.526-178.631 431.893-216.452 628.483 175.236 114.1 226.757 99.35-74.08 263.69-197.225 364.67-272.119 383.07 228.944 566.18-55.82"/><path d="M846.014 570.101c145.009-178.773 427.276-218.98 627.396 175.896 115.48 228.096 95.29-80.106 261.44-202.676 363.17-268.33 391.77 236.517 573.83-44.071"/><path d="M845.595 568.995c142.272-178.723 422.635-222.027 626.585 176.89 117.07 229.243 91.71-85.985 258.93-208.453 361.46-264.353 399.98 243.94 581.47-32.336"/><path d="M844.98 567.591c139.762-178.862 418.25-224.738 626 178.204 118.65 230.381 87.66-91.996 256.43-214.223 359.69-260.9 408.13 251.341 589.06-20.622"/><path d="M844.568 566.474c137.258-178.997 413.652-227.251 624.672 179.048 120.24 231.52 84.12-97.859 254.43-219.844 357.96-256.927 416.27 258.733 596.89-8.589"/><path d="M843.957 565.072c134.531-178.941 409.053-229.76 623.833 180.029 121.82 232.654 80.08-103.855 251.93-225.6 356.72-252.816 424.66 266.443 604.71 3.426"/><path d="M843.548 563.967c132.039-179.075 404.712-232.454 623.022 181.018 123.65 234.124 76.32-109.512 249.71-231.018 354.74-249.179 432.77 273.818 611.99 14.77"/><path d="M843.145 562.869C972.698 383.661 1243.04 327.586 1465.13 745.07c124.97 234.929 72.54-115.685 247.47-236.954 352.99-245.735 440.88 281.185 619.53 26.433"/><path d="M842.54 561.476c126.843-179.147 395.57-237.967 621.15 183.183 126.54 236.06 68.81-121.326 245.01-242.689 351.27-241.771 448.94 288.532 627.28 38.406"/><path d="M842.138 560.377C966.504 381.101 1233.17 319.921 1462.48 744.55c128.11 237.191 65.04-127.485 242.55-248.421 349.79-238.001 457.27 296.207 634.77 50.039"/><path d="M841.742 559.286c121.895-179.405 386.468-243.46 619.538 185.163 129.68 238.323 61.33-133.113 240.33-254.335 347.82-234.373 465.09 303.731 642.02 61.85"/><path d="M841.128 557.873C960.585 378.866 1223.06 311.935 1459.6 744.202c131.01 239.635 57.58-139.253 238.14-259.719 346.06-230.937 473.53 310.656 649.92 73.582"/><path d="M840.732 556.784C957.728 377.65 1218.16 308.371 1458.4 744.103c132.57 240.763 53.63-145.198 235.71-265.43 344.33-227.504 481.55 317.97 657.37 85.174"/><path d="M840.337 555.696c114.54-179.258 373.163-251.072 616.653 188.501 134.13 241.89 49.91-151.326 233.29-271.135 342.59-224.073 489.76 325.082 665.01 96.562"/><path d="M839.747 554.312c111.86-179.188 368.663-253.535 615.833 189.482 135.68 243.008 46.23-156.924 231.35-276.693 340.63-220.451 497.49 332.555 672.16 108.309"/><path d="M839.355 553.227c109.414-179.31 364.185-255.995 615.045 190.471 137.23 244.131 42.3-162.846 228.93-282.384 338.68-216.834 505.71 340.166 679.55 119.859"/><path d="M838.971 552.148c106.972-179.43 359.689-258.97 614.249 191.462 138.56 245.443 38.61-168.953 226.54-288.07 336.95-213.409 513.65 347.438 686.91 131.396"/><path d="M838.385 550.772C942.693 371.416 1193.61 289.353 1451.6 743.406c140.1 246.557 34.71-174.859 224.62-293.609 335.21-209.985 521.55 354.689 694.24 142.911"/><path d="M837.998 549.695C939.875 370.221 1188.78 285.83 1450.44 743.32c141.64 247.676 31.03-180.95 222.22-299.282 333.28-206.374 529.47 361.943 701.58 154.423"/><path d="M837.616 548.608c99.448-179.588 346.344-266.304 611.644 194.608 143.18 248.788 27.14-186.842 219.83-304.947 331.55-202.954 537.34 369.177 709.14 166.241"/><path d="M837.039 547.24c96.8-179.51 341.881-269.258 610.621 195.78 144.48 250.088 23.49-192.916 217.45-310.604 330.05-199.727 545.67 376.535 716.89 177.852"/><path d="M836.657 546.171C931.039 366.546 1174.12 274.48 1446.5 742.943c146.03 251.203 19.63-198.796 215.57-316.122 327.63-196.259 553.06 383.623 723.7 189.188"/><path d="M836.078 544.805C928.046 365.07 1169.13 270.689 1445.13 742.56c147.56 252.309 15.99-204.857 213.21-321.767 325.91-192.846 561.61 391.29 731.19 200.963"/><path d="M835.697 543.738c89.337-179.656 328.663-276.539 608.073 198.939 149.08 253.422 11.88-211.05 210.85-327.41 324.43-189.625 569.67 398.306 738.67 212.22"/><path d="M835.322 542.678c86.934-179.767 324.028-279.285 607.308 199.932 150.4 254.722 8.27-217.1 208.98-332.91 321.78-186.49 577.01 405.366 745.44 223.516"/><path d="M834.745 541.32c84.533-179.874 319.645-281.698 606.535 200.917 151.91 255.826 4.43-222.95 206.63-338.538 320.32-182.755 585.05 412.869 752.89 235.255"/><path d="M834.345 540.241c82.168-179.462 315.495-284.296 605.525 202.091 153.44 256.927.59-229.309 204.3-344.16 318.36-179.676 592.81 420.034 760.33 246.979"/><path d="M833.976 539.181c79.78-179.57 310.224-286.458 604.794 203.092 154.26 258.087-3.23-235.15 202.45-349.645 316.17-176.926 600.35 426.885 767.29 258.056"/><path d="M833.401 537.829c77.171-179.483 306.099-289.047 604.029 204.079 155.78 259.192-6.81-241.169 200.13-355.256 314.49-173.007 608.33 434.362 774.7 269.757"/><path d="M833.025 536.777c74.79-179.589 301.765-291.445 603.295 205.075 157.29 260.298-10.64-247.512 197.81-360.864 312.56-169.933 616.08 441.516 781.88 281.131"/><path d="M832.65 535.726c72.414-179.693 297.67-294.029 602.08 205.936 158.82 261.398-14.67-253.659 195.76-366.142 310.84-167.052 624.3 448.798 789.26 292.304"/><path d="M832.075 534.381c69.819-179.604 293.345-296.416 601.325 206.925 160.33 262.494-18.23-259.658 193.68-371.926 308.93-163.465 632.02 456.439 796.41 304.159"/><path d="M831.709 533.338C899.16 353.632 1120.72 234.02 1432.31 741.26c162.09 263.93-22.28-266.306 191.38-377.518 306.75-160.722 639.73 463.568 803.54 315.498"/><path d="M831.334 532.294c65.089-179.807 284.716-301.699 599.656 209.112 163.6 265.024-26.04-272.107 189.09-383.106 305.3-157.519 647.66 470.499 810.89 326.636"/><path d="M831.408 532.752C895.08 356.298 1117.32 229.025 1434 741.481c164.24 265.789-22.01-265.949 191.44-375.939 305.47-157.517 646.26 462.6 802.36 314.624"/><path d="M831.454 533.191c62.507-172.774 287.356-305.43 605.066 208.213 164.88 266.546-18.2-259.596 193.79-368.768 305.87-157.703 645.37 455.352 794.3 302.742"/><path d="M831.529 533.643c61.088-169.416 288.551-307.458 607.521 207.691 165.52 267.306-14.4-253.752 196.37-361.779 306.3-157.375 644.21 447.762 785.98 291.03"/><path d="M831.582 534.079c59.921-165.732 289.738-309.488 610.238 207.498 166.17 268.063-10.57-247.387 198.48-354.922 306.91-157.752 643.05 440.17 777.88 279.121"/><path d="M831.658 534.522c58.722-162.56 290.922-311.516 612.912 206.782 166.8 268.816-6.73-241.014 200.85-347.73 307.32-157.423 641.89 433.08 769.51 267.384"/><path d="M831.712 534.951c57.553-158.871 292.118-313.545 615.368 206.26 167.67 269.379-2.92-235.154 203.22-340.536 307.72-157.609 640.94 425.283 761.37 255.451"/><path d="M831.787 535.388c56.131-155.505 293.083-315.383 618.073 206.058 168.55 270.464.93-228.77 205.59-333.333 308.32-157.987 639.49 417.335 752.94 243.174"/><path d="M831.836 535.804c54.96-151.811 294.524-317.086 620.524 205.532 169.2 271.214 5.01-222.572 207.71-326.452 308.96-157.848 638.8 410.364 745.02 231.542"/><path d="M831.912 536.233c53.535-148.441 295.708-319.114 623.188 204.809 169.83 271.968 8.88-216.176 210.09-319.238 309.37-157.517 637.58 402.728 736.58 219.759"/><path d="M831.966 536.647c52.363-144.743 296.894-321.144 625.894 204.606 170.46 272.727 12.71-210.294 212.47-312.02 309.72-158.221 636.11 394.761 728.1 207.45"/><path d="M832.043 537.077c51.16-141.561 298.077-323.174 628.347 204.076 171.32 273.287 16.58-203.889 214.85-304.797 310.36-158.081 635.37 387.253 719.62 195.132"/><path d="M832.099 537.482c49.985-137.859 299.261-325.203 631.011 203.351 171.95 274.037 20.68-197.669 216.98-297.895 310.77-157.749 634.16 380.116 711.39 183.644"/><path d="M832.177 537.894c48.558-134.48 300.433-327.23 633.683 203.138 172.84 275.108 24.33-191.579 219.6-290.85 310.91-157.745 632.42 372.31 702.62 171.487"/><path d="M832.228 538.284C879.609 407.51 1134.1 209.352 1468.34 740.882c173.47 275.858 28.44-185.349 221.99-283.611 311.51-158.122 631.64 364.776 694.32 159.459"/><path d="M832.308 538.687C878.26 411.296 1135.35 207.729 1470.84 740.74c174.32 276.41 32.56-179.111 224.38-276.364 312.13-157.981 630.36 357.091 685.98 147.415"/><path d="M832.365 539.074c44.998-123.871 304.215-332.987 641.175 201.318 174.94 277.158 36.21-173.008 226.53-269.442 312.77-157.322 629.1 349.922 677.67 135.884"/><path d="M832.446 539.469c43.566-120.486 305.394-335.014 643.834 201.095 175.57 277.896 40.12-166.57 228.92-262.187 313.11-158.026 627.78 341.705 669.05 123.493"/><path d="M832.506 539.843c42.388-116.772 306.554-337.041 646.244 200.543 176.18 278.644 44.03-160.129 231.31-254.927 313.72-157.885 626.73 334.327 660.67 111.419"/><path d="M832.589 540.229c40.954-113.382 307.501-338.876 648.891 200.315 177.06 279.706 47.92-154.201 233.46-247.99 314.07-158.072 625.62 326.422 652.26 99.335"/><path d="M832.642 540.593c39.774-109.665 308.928-340.575 651.518 199.57 177.67 280.447 51.84-147.75 235.86-240.722 314.68-157.93 624.08 318.897 643.63 87.436"/><path d="M832.727 540.975c38.339-106.273 310.093-342.601 653.903 199.012 178.3 281.183 56-141.487 238.27-233.449 315.04-158.116 623 311.499 634.94 75.007"/><path d="M832.788 541.333c37.158-102.552 311.252-344.627 656.542 198.779 179.14 281.728 59.67-135.356 240.68-226.172 315.38-158.303 621.62 303.247 626.23 62.567"/><path d="M832.874 541.699c35.721-99.156 312.406-346.651 658.916 198.211 179.74 282.46 63.83-129.083 243.04-219.41 315.98-158.161 620.29 296.022 617.79 50.964"/><path d="M832.94 542.042c34.763-95.621 313.56-348.674 661.5 197.45 180.35 283.188 67.77-122.617 245.45-212.125 316.34-157.829 618.93 288.79 609.06 39.023"/><path d="M833.028 542.399c33.325-92.223 314.712-350.697 664.102 197.203 181.21 284.238 71.69-116.664 247.86-204.836 316.42-158.344 617.51 280.512 600.3 26.554"/><path d="M833.087 542.733c32.142-88.495 316.123-352.392 666.463 196.63 181.81 284.967 75.63-110.191 250.26-197.544 317.02-158.202 616.13 272.751 591.78 14.408"/><path d="M833.179 543.074c30.702-85.093 317.261-354.412 669.011 195.855 182.64 285.501 79.81-103.903 252.41-190.577 317.59-158.061 615.21 265.632 583.26 2.769"/><path d="M833.246 543.401c29.518-81.363 318.414-356.434 671.604 195.601 183.24 286.218 83.51-97.75 254.82-183.278 317.92-158.247 613.54 257.527 574.45-9.722"/><path d="M833.342 543.73c28.076-77.958 319.548-358.452 673.908 195.008 183.83 286.932 87.69-91.456 257.22-175.976 318.49-158.106 612.34 250.064 565.86-21.897"/><path d="M833.412 544.048c27.116-74.415 320.458-360.282 676.238 194.421 184.41 287.651 91.64-84.97 259.36-169.001 319.29-158.155 611.39 242.414 557.53-33.745"/><path d="M833.508 544.373c25.673-71.009 321.592-362.3 679.012 193.962 185.26 288.695 95.35-78.808 261.77-161.693 319.12-158.48 609.45 234.476 548.44-46.07"/><path d="M833.573 544.681c24.487-67.273 322.987-363.991 681.337 193.373 185.85 289.416 99.53-72.507 264.17-154.383 319.7-158.339 608 226.68 539.59-58.587"/><path d="M833.673 544.99c23.044-63.865 324.107-366.007 683.607 192.765 186.65 289.925 103.5-66.013 266.8-147.262 319.99-158.527 606.76 219.192 530.71-70.598"/><path d="M833.748 545.284c21.857-60.126 325.242-368.023 686.142 192.489 187.23 290.637 107.43-60.035 268.94-140.277 320.55-158.385 605.27 211.377 522.07-82.801"/><path d="M833.849 545.587c20.413-56.716 326.361-370.038 688.631 191.687 187.8 291.336 111.4-53.536 271.34-132.961 320.61-158.382 603.54 203.743 513.17-94.821"/><path d="M833.93 545.864c19.45-53.166 327.47-372.05 690.88 191.069 188.37 292.037 115.59-47.226 273.73-125.643 321.16-158.241 602.5 196.05 504.49-107.037"/><path d="M834.033 546.155c18.005-49.753 328.587-374.062 693.377 190.779 188.94 292.736 119.56-40.723 276.12-118.324 321.42-158.949 600.71 187.884 495.55-119.586"/><path d="M834.11 546.424c16.816-46.01 329.95-375.745 695.62 190.16 189.98 293.566 123.49-34.74 278.26-111.333 322.21-158.479 599.66 180.185 487.11-131.481"/><path d="M834.215 546.711c15.371-42.597 331.065-377.757 698.075 189.345 190.55 294.264 127.47-28.234 280.65-104.01 322.27-158.477 597.89 172.532 477.92-143.848"/><path d="M834.303 546.958c14.182-38.853 332.157-379.763 700.517 189.035 191.1 294.947 131.66-21.919 283.03-96.688 322.76-158.857 596.31 164.674 469.19-156.082"/><path d="M834.415 547.228c12.736-35.437 333.255-381.77 702.715 188.398 191.65 295.634 135.37-15.741 285.41-89.365 323.03-159.045 594.96 156.626 460.45-168.317"/><path d="M834.504 547.477c11.771-31.884 334.126-383.587 705.126 187.567 192.2 296.326 139.57-9.424 287.54-82.37 323.58-158.384 593.67 149.616 451.48-180.365"/><path d="M834.619 547.732c10.324-28.468 335.211-385.591 707.551 187.248 192.97 296.81 143.53-2.916 290.13-75.237 323.84-158.574 591.59 141.608 442.24-192.745"/><path d="M834.705 547.968c9.135-24.721 336.565-387.267 709.735 186.604 193.76 297.818 147.46 3.073 292.5-67.911 324.1-158.764 590.21 133.549 433.49-204.989"/><path d="M834.826 548.206c7.688-21.304 337.634-389.266 711.864 185.941 194.29 298.493 151.42 9.58 294.86-60.588 324.59-158.624 588.83 125.998 424.7-217.234"/><path d="M834.921 548.435c6.498-17.557 338.719-391.269 714.489 185.425 194.83 299.16 155.39 16.089 296.98-53.593 324.84-158.814 587.21 118.121 415.7-229.29"/><path d="M835.044 548.668c5.05-14.139 339.786-393.267 716.606 184.759 195.35 299.833 159.32 22.076 299.33-46.27 325.34-158.674 585.57 110.236 406.91-241.538"/><path d="M835.144 548.886c4.085-10.583 340.866-395.267 718.736 184.095 195.87 300.499 163.27 28.584 301.69-38.946 325.57-158.865 583.92 102.351 398.12-253.786"/><path d="M835.273 549.101c2.637-7.165 341.917-397.261 721.067 183.743 196.61 300.966 167.45 34.898 303.78-31.955 326.04-158.726 582.72 94.593 389.3-266.034"/><path d="M835.372 549.305c1.447-3.418 343.238-398.928 723.398 182.88 197.39 301.955 171.15 41.075 306.12-24.633 326.28-158.917 580.84 86.894 380.28-278.091"/><path d="M835.502 549.516S1179.8 148.595 1560.96 731.711c197.9 302.609 175.33 47.388 308.46-17.314 326.76-158.779 579.15 78.993 371.47-290.339"/><path d="M834.894 548.647s344.346-399.876 724.346 179.826c198.07 301.887 177.14 50.213 310.02-14.819 326.26-158.918 575.34 78.918 374.06-286.521"/><path d="M834.286 547.773s344.404-398.83 723.214 177.452c198.26 301.165 178.48 52.899 311.84-11.994 325.73-159.578 571.25 78.509 376.64-282.703"/><path d="M833.675 546.907S1178.13 149.12 1555.51 721.662c198.45 300.448 180.32 55.724 313.41-9.499 325.49-159.387 567.44 78.434 379.75-278.227"/><path d="M833.067 546.033S1177.8 149.101 1553.74 717.895c198.63 299.735 182.14 58.548 314.97-7.005 325.03-159.006 563.65 78.876 382.62-273.559"/><path d="M832.255 544.867s345.035-395.556 719.565 170.005c198.8 299.008 183.7 61.041 316.55-3.992 324.95-160.048 559.76 77.755 385.4-270.452"/><path d="M831.648 543.992s345.092-394.51 718.402 167.112c198.98 298.286 185.29 64.054 318.11-1.499 324.48-159.667 555.74 78.387 388.27-265.785"/><path d="M831.041 543.113S1176.17 149.65 1548.3 707.847c199.15 297.563 187.11 66.876 319.91 1.322 323.98-159.806 551.66 77.976 390.86-261.968"/><path d="M830.429 542.256s345.201-392.422 715.911 162.046c199.34 296.848 188.68 69.374 321.49 3.82 323.72-160.136 547.6 77.578 393.71-257.823"/><path d="M829.825 541.375s345.245-391.374 714.765 159.668c199.52 296.126 190.5 72.196 323.04 6.312 323.48-159.946 543.77 77.496 396.55-253.677"/><path d="M829.217 540.497S1173.83 150.74 1542.84 697.789c199.47 295.592 192.09 75.207 324.62 9.323 322.95-160.606 539.92 76.895 399.35-250.051"/><path d="M828.61 539.626s344.67-388.712 712.24 154.591c199.65 294.873 193.65 77.701 326.18 11.817 322.71-160.416 535.87 77.008 402.45-245.577"/><path d="M828.005 538.746S1172.72 151.081 1539.1 690.96c199.6 294.339 195.47 80.521 327.99 14.637 322.17-161.076 531.78 76.598 405.03-241.761"/><path d="M827.201 537.573s344.749-386.615 709.939 149.832c199.76 293.611 197.28 83.34 329.53 17.125 321.92-160.885 527.94 76.514 408.1-237.287"/><path d="M826.589 536.696s345.061-385.241 708.541 147.129c199.95 292.889 198.62 86.022 331.09 19.617 321.68-160.696 524.38 76.764 410.95-233.143"/><path d="M825.983 535.818s345.107-384.195 707.407 144.756c200.13 292.166 200.43 88.843 332.9 22.437 321.15-161.355 520.04 76.027 413.52-229.328"/><path d="M825.38 534.933s345.15-383.147 706.25 142.375c200.3 291.439 202.25 91.661 334.22 25.116 321.12-161.356 516.43 75.753 416.57-225.375"/><path d="M824.776 534.049S1169.96 151.95 1529.85 673.526c200.46 290.712 203.79 94.149 335.75 27.604 320.65-160.975 512.41 76.382 419.44-220.712"/><path d="M824.17 533.175s345.24-381.055 703.94 137.104c200.64 289.992 205.39 97.162 337.57 30.425 319.89-161.443 508.07 75.645 421.75-217.227"/><path d="M823.564 532.299S1168.85 152.29 1526.11 666.701c200.82 289.268 207.21 99.98 339.12 32.915 319.62-161.774 504.25 75.566 424.85-212.756"/><path d="M822.959 531.406s345.581-378.631 701.381 132.02c200.74 288.21 208.76 102.468 340.66 35.401 319.37-161.584 500.41 75.483 427.67-208.614"/><path d="M822.16 530.22s345.61-377.579 700.2 129.629c201.14 287.803 210.55 105.278 342.21 38.403 319.07-161.915 496.78 75.2 430.69-204.665"/><path d="M821.555 529.343s345.655-376.534 698.805 126.926c201.32 287.079 212.14 108.287 343.76 40.891 319.05-161.915 492.95 75.122 433.52-200.523"/><path d="M820.955 528.451s345.685-375.485 697.635 124.543c201.49 286.35 213.69 110.773 345.55 43.706 318.29-162.384 488.64 74.898 436.08-196.713"/><path d="M820.352 527.566S1166.31 152.937 1516.83 649.73c201.66 285.622 215.5 113.587 347.1 46.19 317.78-162.523 484.54 74.487 438.89-192.573"/><path d="M819.754 526.67S1165.74 153.091 1514.8 646.12c201.82 284.889 217.3 116.399 348.88 49.002 317.75-162.525 480.7 74.4 441.71-188.435"/><path d="M819.146 525.784s346.284-372.203 693.904 117.074c201.99 284.163 218.62 119.077 350.2 51.679 317.46-162.855 476.84 73.8 444.49-184.816"/><path d="M818.547 524.887s346.313-371.153 692.723 114.689c202.16 283.43 220.42 121.887 351.73 54.16 316.95-162.994 472.99 73.714 447.3-180.679"/><path d="M817.947 523.996S1164.3 153.891 1509.48 635.782c202.31 282.7 222.21 124.7 353.51 56.972 316.21-162.942 468.45 73.682 449.88-176.35"/><path d="M817.152 522.799s346.368-369.051 690.318 109.39c202.47 281.957 223.74 127.174 355.02 59.446 316.17-162.944 464.84 73.917 452.92-171.888"/><path d="M816.554 521.903S1163.18 153.71 1505.44 628.58c202.63 281.225 225.32 130.174 356.8 62.255 315.66-163.083 461 73.831 455.47-168.081"/><path d="M815.956 521.006s346.654-367.144 687.714 104.291c202.78 280.492 227.11 132.983 358.32 64.734 315.14-163.222 456.9 73.417 458.27-163.947"/><path d="M815.358 520.098s346.932-365.763 686.522 101.903c202.94 279.754 228.64 135.459 359.61 67.401 314.84-163.553 453.05 73.327 461.28-160.005"/><path d="M814.763 519.195s346.957-364.713 685.077 99.185c203.32 278.827 230.43 138.265 361.39 70.206 314.8-163.554 449.16 72.719 464.06-155.873"/><path d="M814.168 518.285s347.202-363.852 683.872 96.793c203.47 278.087 231.73 140.929 362.9 72.679 314.27-163.694 445.08 72.819 466.84-151.743"/><path d="M813.572 517.385s347.228-362.803 682.688 94.408c203.64 277.352 233.53 143.735 364.42 75.155 313.98-164.023 440.98 72.404 469.38-147.94"/><path d="M812.98 516.471s347.25-361.75 681.23 91.684c203.78 276.61 235.3 146.535 366.17 77.955 313.45-164.163 437.12 72.312 472.15-143.813"/><path d="M812.191 515.261s347.479-360.885 679.989 89.284c203.92 275.862 236.82 149 367.44 80.61 313.39-164.164 433.47 72.024 475.39-139.549"/><path d="M811.598 514.339s347.752-359.503 678.772 86.887c204.06 275.117 238.36 151.988 369.19 83.406 312.6-164.632 429.35 71.602 477.89-135.753"/><path d="M811.006 513.428s347.764-358.451 677.544 83.977c204.21 274.377 240.14 154.787 370.68 85.876 312.34-164.442 425.28 71.703 480.45-131.436"/><path d="M810.419 512.502s347.991-357.588 676.311 81.577c204.34 273.628 241.65 157.25 372.17 88.338 311.8-164.582 421.41 71.608 483.19-127.314"/><path d="M809.832 511.57s348.008-356.535 674.838 78.856c204.72 272.694 243.42 160.045 373.93 91.133 311.49-164.911 417.29 71.188 486.18-123.382"/><path d="M809.246 510.641s348.224-355.668 673.574 76.446c204.84 271.937 244.95 163.02 375.16 93.779 311.42-164.914 413.41 71.085 488.91-119.267"/><path d="M808.662 509.696s348.478-354.282 672.308 74.038c204.97 271.181 246.44 165.474 376.89 96.561 310.86-165.052 409.29 71.176 491.37-115.48"/><path d="M808.075 508.772s349.155-353.802 670.835 71.313c205.55 270.052 248.2 168.264 378.36 99.022 310.33-165.191 405.18 70.754 494.12-111.363"/><path d="M807.298 507.529s349.132-352.74 669.532 68.896c205.67 269.286 249.93 171.038 379.81 101.467 310.24-165.193 401.53 70.975 497.07-106.927"/><path d="M806.719 506.58s349.121-351.682 668.261 66.486c205.79 268.528 251.2 173.679 381.52 104.245 309.43-165.661 397.13 70.217 499.52-103.145"/><path d="M806.139 505.633s349.331-350.816 666.741 63.749c205.91 267.769 252.93 176.456 382.96 106.693 309.14-165.471 393.5 70.444 502.23-99.037"/><path d="M805.564 504.672s349.306-349.756 665.446 61.335c206.02 267.004 254.66 179.227 384.43 109.654 308.55-166.129 389.32 69.492 504.89-95.453"/><path d="M804.99 503.695s349.52-348.362 664.1 58.905c206.11 266.225 256.1 181.656 385.83 112.083 308.22-165.94 385.17 69.566 507.57-90.84"/><path d="M804.419 502.727s349.491-347.304 662.791 55.977c206.22 265.462 257.61 184.617 387.27 114.524 307.66-166.078 381.29 69.466 510.26-86.738"/><path d="M803.855 501.734s349.455-346.241 661.465 53.554c206.32 264.689 259.32 187.377 388.94 117.284 307.55-166.08 377.37 69.355 512.88-83.164"/><path d="M804.017 502.129s348.673-344.98 659.583 54.29c28.54 36.749 54.1 66.777 77.46 91.585 143.37 151.043 198.62 87.625 310.38 28.962 78.9-41.584 132.71-62.333 185.88-66.185 91.81-6.777 149.2 20.667 206 26.268 40.95 4.369 80.4-.875 122.18-49.55"/><path d="M804.378 502.815s348.162-343.394 658.222 55.176c28.3 36.43 53.65 66.656 77.02 91.47 141.29 150.722 197.61 89.131 309.49 32.025 82.67-42.039 128.93-67.254 184.25-70.742 92.61-5.785 146.84 15.655 205.99 20.912 42.12 3.939 84.16 2.498 124.77-46.265"/><path d="M804.544 503.19s347.626-341.803 656.806 56.047c28.06 36.109 53.41 66.34 76.57 91.35 139.42 150.201 196.83 90.957 308.84 35.409 85.94-42.633 125.13-72.177 182.36-75.63 93.14-5.122 144.71 10.965 206.21 15.878 43.29 3.508 88.17 6.2 127.61-42.651"/><path d="M804.908 503.872s346.862-340.544 654.952 56.793c28.07 36.117 52.96 66.218 76.13 91.234 137.78 149.496 196.07 92.79 307.95 38.472 89.45-43.416 120.86-77.24 180.5-80 93.91-4.649 142.6 6.277 206.45 10.846 44.68 2.888 92.64 9.524 130.65-39.744"/><path d="M805.071 504.256s346.329-338.954 653.559 57.669c27.82 35.796 52.49 66.093 75.67 91.115 135.92 148.977 195.3 94.619 307.3 41.86 93.23-43.871 117.07-82.167 178.87-84.563 94.45-3.985 140.48 1.586 206.65 5.293 45.62 2.647 96.44 13.42 133.01-36.266"/><path d="M805.437 504.934s345.553-337.694 651.693 58.412c27.58 35.475 52.26 65.78 75.22 90.998 134.29 148.27 194.8 96.78 306.9 45.061 96.73-44.653 113.26-87.097 176.97-89.456 94.99-3.321 138.13-2.915 206.88.257 46.79 2.218 100.21 16.801 135.87-32.646"/><path d="M805.603 505.312s345.037-336.105 650.307 59.293c27.34 35.154 51.81 65.656 74.78 90.881 132.16 147.424 194.03 98.613 306 48.125 100.51-45.107 109.46-92.029 175.34-94.022 95.75-2.847 136-7.609 207.11-4.78 47.96 1.788 104.46 20.32 138.69-29.544"/><path d="M805.968 505.976s344.492-334.51 648.872 60.16c27.35 35.16 51.57 65.338 74.36 91.277 130.5 146.708 193.5 100.768 305.34 51.511 104.02-45.889 105.39-97.29 173.42-98.918 96.29-2.183 133.87-12.307 207.08-10.15 49.12 1.356 108.49 24.028 141.54-25.924"/><path d="M806.131 506.376s343.719-333.25 647.019 60.905c26.88 35.031 51.11 65.216 73.91 91.161 128.86 146 193 102.932 304.45 54.577 107.8-46.341 101.59-102.225 171.79-103.486 97.05-1.709 131.74-17.004 207.54-15.38 50.54 1.256 112.51 27.743 144.13-22.629"/><path d="M806.495 507.048s343.195-331.659 645.625 61.784c26.64 34.709 50.88 64.901 73.46 91.042 126.99 145.481 192.23 104.765 303.81 57.971 111.57-46.793 97.77-107.163 169.66-108.195 97.6-1.043 129.39-21.513 207.77-20.422 51.71.826 116.52 30.939 146.97-19.523"/><path d="M806.66 507.439s342.42-330.397 643.98 62.334c26.64 34.716 50.41 64.777 73 90.924 125.35 144.77 191.72 106.927 303.17 61.366 115.1-47.574 93.97-112.103 168.02-112.768 97.89-.706 127.25-26.213 207.75-25.793 52.88.396 120.56 34.655 149.82-15.897"/><path d="M807.02 508.121s341.9-328.807 642.38 63.41c26.4 34.396 50.18 64.463 72.55 90.807 123.71 144.062 191.22 109.094 302.29 64.437 118.89-48.025 89.89-117.375 166.37-117.342 98.66-.231 125.12-30.916 207.98-30.837 54.03-.553 124.58 37.855 152.41-13.117"/><path d="M807.193 508.484s341.357-327.209 640.927 64.274c26.16 34.072 49.72 64.335 72.1 90.684 122.05 143.341 190.95 111.578 301.62 67.824 122.67-48.476 86.07-122.317 164.46-122.246 99.19.434 122.97-35.622 208.42-36.077 55.22-.463 128.64 42.091 155.28-8.97"/><path d="M807.55 509.187s340.6-325.952 639.11 65.03c25.91 33.752 49.26 64.214 71.65 90.57 120.18 142.828 190.46 113.751 300.75 70.902 126.46-48.926 81.99-127.595 162.82-126.824 99.97.911 120.62-40.136 208.4-41.451 56.4-.892 132.67 45.298 158.14-5.855"/><path d="M807.718 509.563s340.062-324.356 637.692 65.902c25.92 33.759 49.02 63.897 71.19 90.449 118.53 142.111 189.94 115.911 300.33 74.105 130.24-49.376 78.15-132.541 160.9-131.732 100.48 1.058 118.47-44.844 208.62-46.5 57.6-.802 136.72 49.019 160.78-2.034"/><path d="M808.081 510.249s339.289-323.094 636.059 66.458c25.67 33.437 48.56 63.773 70.74 90.332 116.63 141.072 189.21 118.271 299.44 77.179 133.82-49.634 74.33-137.494 159.03-136.123 101.02 1.726 116.33-49.554 208.82-52.07 59.04-.901 141.04 53.076 163.66 1.602"/><path d="M808.24 510.654s338.78-321.503 634.46 67.537c25.43 33.116 48.33 63.46 70.3 90.215 114.97 140.363 188.96 120.771 298.81 80.585 137.62-50.082 70.24-142.778 157.12-141.035 101.8 2.203 113.97-54.075 209.06-57.121 60.18-1.85 144.81 55.957 166.25 4.39"/><path d="M808.617 511.291s338.243-319.906 633.023 68.404c25.44 33.122 47.86 63.332 70.09 90.421 113.31 139.642 188.44 122.931 298.16 83.978 141.4-50.531 66.4-147.729 155.45-145.617 102.08 2.54 111.81-58.788 209.28-62.176 61.34-2.28 148.85 59.682 169.07 7.504"/><path d="M808.774 511.703s337.466-318.642 631.376 68.958c24.97 32.991 47.63 63.017 69.42 90.494 111.66 138.93 188.19 125.43 297.27 87.054 145.2-50.978 62.3-153.017 153.79-150.204 102.86 3.017 109.67-63.503 209.25-67.56 62.53-2.708 152.93 63.415 171.96 11.144"/><path d="M809.14 512.379s336.94-317.047 629.76 70.029c24.72 32.669 47.16 62.892 68.96 90.375 110.01 138.215 187.69 127.599 296.63 90.457 149.01-51.425 58.46-157.976 151.88-155.12 103.37 3.165 107.51-68.22 209.44-73.137 63.96-2.808 157.22 66.957 174.84 14.785"/><path d="M809.303 512.777s336.157-315.781 628.087 70.575c24.48 32.345 46.93 62.575 68.51 90.254 108.09 137.168 187.42 130.094 295.73 93.529 153.06-51.543 54.58-163.456 149.98-159.518 103.92 3.833 105.13-72.748 209.92-77.865 65.14-3.238 161.03 70.36 177.47 18.096"/><path d="M809.666 513.454s335.644-314.188 626.494 71.656c24.49 32.354 46.47 62.452 68.06 90.138 106.43 136.456 186.96 132.789 295.1 96.94 156.89-51.988 50.74-168.423 148.07-164.44 104.47 4.503 102.98-77.469 209.9-83.253 66.54-3.857 165.82 74.048 180.56 21.03"/><path d="M809.833 513.837s335.107-312.591 625.077 72.53c24.24 32.03 46.23 62.134 67.61 90.017 104.76 135.737 186.44 134.956 294.45 100.342 160.72-51.913 46.63-173.716 146.4-169.031 104.99 4.651 100.6-82 210.12-88.315 67.72-4.285 169.37 77.126 183.18 24.345"/><path d="M810.198 514.52s334.342-311.328 623.462 73.094c23.99 31.708 45.76 62.01 67.15 89.9 103.12 135.025 186.21 137.464 293.81 103.236 164.54-52.356 42.77-178.689 144.48-173.957 105.77 5.131 98.7-86.395 210.58-93.567 68.67-4.522 173.5 81.392 185.86 28.186"/><path d="M810.36 514.918s333.14-309.158 621.82 74.161c24 31.715 45.53 61.693 66.7 89.78 101.67 134.114 185.94 139.962 293.16 106.641 168.61-52.471 38.65-183.988 142.81-178.553 106.05 5.47 96.53-91.12 210.53-98.96 70.12-4.621 177.33 84.802 188.5 31.503"/><path d="M810.724 515.602s332.376-307.895 620.196 74.723c23.76 31.393 45.07 61.57 66.25 89.664 99.77 133.072 185.49 142.662 292.29 109.728 172.44-52.914 34.79-188.965 141.14-183.153 106.84 5.95 94.15-95.658 210.77-104.026 71.3-5.048 181.65 88.361 191.37 34.636"/><path d="M810.893 515.973s331.817-306.292 618.727 75.583c23.29 31.259 44.83 61.249 66.05 89.868 98.08 132.345 185.21 145.153 291.62 113.124 176.27-52.837 30.66-194.261 138.97-187.886 107.34 6.097 91.98-100.385 210.97-109.093 72.48-5.478 185.72 92.097 194.25 38.28"/><path d="M811.259 516.65s331.301-304.694 617.111 76.656c23.03 30.935 44.36 61.123 65.59 89.748 96.41 131.626 184.96 147.658 290.98 116.536 180.35-52.95 26.79-199.239 137.3-192.487 107.89 6.767 89.81-105.117 211.16-114.683 73.43-5.715 189.56 95.516 196.89 41.604"/><path d="M811.419 517.062s330.531-303.43 615.481 77.216c23.04 30.943 44.12 60.808 65.13 89.631 94.99 130.72 184.24 150.029 290.11 119.624 184.44-53.06 22.89-204.743 135.37-197.423 108.42 6.919 87.41-109.659 211.39-119.752 74.62-6.142 193.89 99.079 199.81 45.262"/><path d="M811.785 517.735s330.005-301.83 613.845 78.288c22.8 30.619 43.66 60.681 64.68 89.51 93.32 130 183.99 152.533 289.47 123.036 188.3-52.98 18.75-210.054 133.69-202.027 109.19 7.398 85.24-114.394 211.35-125.153 76.06-6.24 197.99 102.829 202.68 48.396"/><path d="M812.141 518.445s329.239-300.565 612.219 78.849c22.55 30.297 43.42 60.367 64 89.585 91.88 129.093 183.75 155.045 288.59 126.127 192.4-53.089 14.88-215.044 131.76-206.967 109.5 7.741 83.07-119.132 211.58-130.226 77.25-6.667 202.11 106.589 205.34 51.729"/><path d="M812.314 518.805s328.706-298.965 610.806 79.728c22.3 29.972 43.18 60.048 63.55 89.463 89.94 128.041 183.49 157.55 288.17 129.349 196.26-53.008 10.73-220.359 130.07-211.575 110.27 8.222 80.67-123.679 212.03-135.491 78.43-7.095 206.18 109.821 208.25 55.387"/><path d="M812.668 519.521s328.192-297.368 608.932 80.475c22.31 29.98 42.72 59.924 63.1 89.346 88.28 127.321 183.02 160.252 287.29 132.438 200.36-53.116 6.58-225.682 128.16-215.996 110.8 8.373 78.75-128.09 211.99-140.898 79.63-7.522 210.3 113.582 210.92 58.721"/><path d="M812.841 519.895s328.079-296.671 607.519 81.352c22.06 29.656 42.47 59.605 62.63 89.224 86.83 126.407 182.77 162.758 286.65 135.852 204.46-53.225 2.7-230.67 126.22-220.936 111.35 9.044 76.56-132.832 212.21-145.976 81.29-7.81 214.89 117.479 214.04 62.191"/><path d="M813.211 520.56s327.539-295.069 606.089 82.227c21.81 29.331 42.01 59.477 62.17 89.101 85.38 125.491 182.29 165.454 286 139.265 208.33-53.142-1.22-236.181 124.53-225.547 111.87 9.194 74.16-137.383 212.42-151.055 82.26-8.046 218.52 121.097 216.7 65.522"/><path d="M813.364 520.987s326.786-293.804 604.256 82.988c21.82 29.339 41.77 59.162 61.98 89.316 83.72 124.776 182.07 167.975 285.14 142.366 212.48-52.723-5.39-241.517 122.59-230.499 112.66 9.679 71.97-142.133 212.62-156.658 83.45-8.472 222.63 124.349 219.39 68.866"/><path d="M813.739 521.638s326.241-292.199 602.801 83.855c21.57 29.013 41.53 58.842 61.52 89.192 82 123.524 181.8 170.475 284.48 145.774 216.57-52.832-9.29-246.507 120.88-235.111 112.95 10.019 69.79-146.877 212.83-161.738 84.64-8.901 226.73 128.105 222.29 72.526"/><path d="M813.891 522.067s325.509-290.409 600.949 84.609c21.32 28.69 41.06 58.717 61.07 89.074 80.32 122.805 181.59 173.517 283.6 148.873 220.72-52.413-13.45-251.844 118.71-239.873 113.48 10.171 67.38-151.439 213.06-166.824 85.83-9.326 230.87 131.88 225.2 75.681"/><path d="M814.26 522.744s324.73-289.14 599.56 85.498c21.08 28.366 40.83 58.4 60.61 88.955 78.88 121.893 181.1 175.703 282.98 152.3 224.84-52.516-17.39-257.373 117.02-244.497 114.27 10.655 65.19-156.192 213.02-172.24 87.25-9.944 235.21 134.94 228.11 78.833"/><path d="M814.434 523.108s324.196-287.536 598.116 86.37c20.86 28.562 40.36 58.27 60.15 88.831 77.42 120.973 181.1 178.54 282.56 155.524 228.97-52.1-21.3-262.372 115.32-249.115 114.56 10.996 63.02-160.421 213.44-177.517 88.48-9.85 239.11 138.895 230.8 82.692"/><path d="M814.788 523.822s323.422-286.268 596.262 87.123c20.61 28.239 40.12 57.955 59.7 88.715 75.97 120.06 180.64 181.252 281.68 158.624 233.14-51.677-25.48-267.717 113.36-254.075 115.35 11.482 60.83-165.179 213.68-182.606 89.93-9.945 243.26 142.675 233.49 86.041"/><path d="M814.953 524.216s322.897-284.665 594.857 88.006c20.35 27.914 39.87 57.636 59.01 88.784 74.29 119.335 180.39 183.767 281.05 162.049 237.29-51.256-29.66-273.058 111.66-258.7 115.87 11.633 58.63-169.937 213.63-188.028 91.12-10.371 247.63 146.26 236.39 89.196"/><path d="M815.313 524.913s322.397-283.066 593.237 88.576c20.37 27.922 39.42 57.512 58.56 88.669 72.85 118.423 179.94 186.486 280.19 165.157 241.7-51.022-33.62-278.605 109.7-263.668 116.68 12.121 56.21-174.51 214.09-193.313 92.32-10.795 251.54 149.718 239.36 92.884"/><path d="M815.482 525.3s321.598-281.791 591.558 89.636c20.12 27.595 39.17 57.19 58.1 88.543 71.38 117.5 179.68 188.993 279.53 168.574 245.84-50.604-37.54-283.611 107.77-268.101 117.67 12.411 54.48-179.126 214.51-198.595 93.29-11.032 255.67 153.488 242.02 96.225"/><path d="M815.845 525.984S1136.92 245.797 1406 616.505c19.87 27.27 38.93 56.872 57.9 88.754 69.92 116.583 179.21 191.703 278.9 172.004 250.01-50.18-41.73-288.961 105.8-273.065 117.5 12.615 52.06-183.699 214.24-203.83 94.46-11.98 259.8 156.748 244.95 99.385"/><path d="M816.011 526.38S1136.3 247.466 1404.5 617.453c19.61 26.945 38.68 56.552 57.43 88.632 68.46 115.664 179.23 194.553 278.01 175.101 254.17-49.755-45.92-294.312 104.1-277.698 118.28 13.1 49.62-188.272 214.45-208.926 95.94-11.553 264.21 160.862 247.89 103.068"/><path d="M816.376 527.064s319.764-277.311 586.854 92.149c19.63 26.951 38.22 56.425 56.98 88.512 67 114.745 178.75 197.264 277.38 178.532 258.34-49.33-49.89-299.858 102.38-282.334 118.81 13.253 47.41-193.04 214.64-214.548 97.14-11.977 268.12 164.318 250.58 106.423"/><path d="M816.539 527.466s319.251-275.706 585.191 92.703c19.38 26.626 37.98 56.106 56.52 88.391 65.54 113.826 178.51 199.786 276.72 181.443 262.78-48.571-53.83-304.885 100.41-287.304 119.37 13.93 45.2-197.81 214.85-219.648 98.37-11.88 272.54 168.439 253.57 110.634"/><path d="M816.898 528.162s318.472-274.434 583.582 93.787c19.12 26.301 37.73 55.789 56.06 88.273 63.85 113.099 178.06 202.504 276.1 184.881 266.97-48.142-58.07-310.773 98.7-291.947 119.91 14.085 42.76-202.394 215.07-224.751 99.28-13.16 276.43 171.38 255.99 113.142"/><path d="M817.062 528.565s317.958-272.83 582.178 94.673c18.91 26.498 37.26 55.661 55.6 88.152 62.39 112.179 177.81 205.027 275.22 187.985 271.4-47.381-62.03-315.805 96.49-296.731 120.44 14.24 40.54-207.167 215.02-230.186 100.75-13.253 280.87 175.506 259.44 116.975"/><path d="M817.426 529.249s363.884-311.448 635.424 183.45c60.93 111.259 177.61 208.075 274.59 191.421 275.59-46.951-66.24-321.171 94.77-301.375 121.24 14.727 38.33-211.942 215.46-235.482 102.21-13.346 285.02 178.779 262.15 120.337"/><path d="M1463.52 386.259c-197.77 198.093-521.85 232.625-656.283-59.853-85.633-186.633-171.312-7.05-312.564 132.275C99.605 847.955 259.79 402.056 64.206 779.324"/><path d="M1464.4 387.266c-195.22 197.98-517.422 234.821-655.679-60.896-87.344-187.598-167.028-1.698-310.228 137.884-393.5 385.325-243.483-62.991-438.912 309.848"/><path d="M1465.05 388c-192.66 197.865-512.486 237.083-654.835-62.158-89.053-188.563-163.535 3.294-307.667 143.273C109.563 849.847 250.011 400.196 55.285 769.18"/><path d="M1465.71 388.725c-189.87 197.537-508.793 239.432-654.194-63.186-90.982-189.306-159.533 8.357-305.372 148.38C114.234 850.64 244.82 398.868 50.527 763.713"/><path d="M1466.58 389.721c-187.32 197.424-504.359 241.633-653.542-64.211-92.672-190.266-155.774 13.634-302.81 153.773-391.105 372.424-270.362-81.464-464.22 279.245"/><path d="M1467.24 390.446c-184.78 197.307-499.961 243.822-652.936-65.252-94.603-191.009-151.798 18.69-300.5 159.376-389.802 368.19-279.128-87.589-472.549 268.979"/><path d="M1467.89 391.17c-182 196.975-495.276 246.303-651.784-66.209-96.287-191.967-148.058 23.962-298.225 164.478C128.889 853.333 230.02 395.736 37.04 748.168"/><path d="M1468.75 392.158c-179.45 196.86-490.88 248.001-651.368-67.51-98.229-193.206-144.087 29.018-295.676 169.871-387.901 359.89-296.795-99.588-489.37 248.207"/><path d="M1469.4 392.878c-176.92 196.74-486.495 250.185-650.744-68.545-99.914-194.163-140.37 34.283-293.386 175.47C138.682 855.462 220.001 393.892 27.638 737.767"/><path d="M1470.26 393.864c-174.15 196.407-482.083 252.383-649.824-69.774-101.577-195.114-136.418 39.332-291.122 180.574C143.822 856.319 215.383 392.663 23.469 732.405"/><path d="M1470.9 394.58c-171.62 196.287-477.695 254.569-649.17-70.799-103.245-196.066-132.443 44.88-288.603 185.957C149.228 857.452 210.032 391.58 19.074 727.255"/><path d="M1471.55 395.299c-169.36 195.879-473.321 256.751-648.527-71.827-104.914-197.019-128.518 49.92-286.095 191.335C154.117 858.511 205.184 390.564 14.679 722.104"/><path d="M1472.41 396.278c-166.6 195.541-468.93 258.942-647.602-73.054-106.565-197.966-124.595 54.962-284.086 196.652C159.248 859.361 200.376 389.565 10.059 716.689"/><path d="M1473.04 396.991c-164.07 195.417-464.06 261.188-646.946-74.08-108.459-198.698-120.92 60.215-281.591 202.029C164.391 860.701 195.548 388.557 5.689 711.547"/><path d="M1473.68 397.701c-161.33 195.073-459.71 263.365-646.291-75.102-110.114-199.646-117.021 65.248-279.102 207.405C169.273 861.757 190.477 387.272 1.349 706.415"/><path d="M1474.52 398.684c-158.81 194.946-455.36 265.539-645.397-76.345-111.767-200.593-113.096 70.782-276.855 212.996C174.852 863.147 185.884 386.544-2.779 701.554"/><path d="M1475.16 399.391c-156.31 194.818-450.78 267.495-644.734-77.365-113.412-201.537-109.215 75.811-274.648 218.086C179.735 864.203 181.118 385.556-7.346 696.15"/><path d="M1475.79 400.094c-153.57 194.473-446.44 269.67-644.057-78.38-115.05-202.48-105.576 81.055-272.177 223.459-374.703 319.869-383.45-160.882-571.444 145.582"/><path d="M1476.63 401.074c-151.06 194.341-442.12 271.836-643.169-79.623-116.695-203.424-101.716 86.076-269.953 229.045C190.173 866.64 171.535 383.572-15.985 685.904"/><path d="M1477.25 401.78c-148.56 194.208-437.56 273.782-642.238-80.362-118.101-204.585-97.597 91.38-267.77 234.127C195.28 867.966 166.27 382.52-20.275 680.788"/><path d="M1477.87 402.483c-145.83 193.857-432.99 276.228-641.585-81.387-119.738-205.527-93.989 96.615-265.327 239.491-370.359 308.479-409.46-179.054-595.527 115.082"/><path d="M1478.7 403.456c-143.33 193.722-428.67 278.39-641.171-82.69C716.163 114.3 747.641 422.681 574.641 565.624c-368.713 305.042-417.914-185.073-603.5 104.934"/><path d="M1479.32 404.156c-140.84 193.586-424.14 280.331-640.005-83.644-122.992-207.404-86.298 107.145-260.957 250.155C211.255 871.768 152.002 379.58-33.368 665.173"/><path d="M1480.16 405.127c-138.13 193.231-419.62 282.27-639.338-84.663-124.614-208.341-82.218 112.438-258.533 255.517-365.99 297.096-435.043-197.378-619.927 84.086"/><path d="M1480.77 405.828c-135.64 193.091-415.34 284.419-638.68-85.689-126.506-209.564-78.415 117.443-256.387 260.59C221.587 874.164 142.24 377.344-41.889 654.962"/><path d="M1481.38 406.528c-133.16 192.95-410.58 286.632-637.803-86.936-127.864-210.217-74.587 122.949-254.215 266.165-362.476 289.992-451.869-209.388-635.508 64.099"/><path d="M1482.2 407.498c-130.45 192.589-406.31 288.779-637.132-87.96-129.48-211.152-70.802 127.95-251.815 271.521-360.864 286.049-460.247-215.381-643.658 53.694"/><path d="M1482.81 408.197c-127.98 192.446-401.83 290.702-636.486-88.988-131.098-212.088-66.994 133.449-249.425 276.872-359.488 282.322-468.886-221.656-651.536 43.573"/><path d="M1483.41 408.895c-125.51 192.3-397.32 293.124-635.841-90.02-132.715-213.022-63.227 138.444-247.276 282.441-357.616 278.658-477.015-227.862-659.168 33.238"/><path d="M1484.26 409.863c-123.08 191.652-392.85 295.047-634.947-91.258-134.087-214.173-59.438 143.94-245.161 287.51-355.967 275.218-485.8-233.398-667.483 23.072"/><path d="M1484.86 410.561c-120.62 191.504-388.39 296.96-634.307-92.292-135.701-215.106-55.426 149.213-242.795 292.856C253.431 882.896 113.625 371.75-67.556 624.089"/><path d="M1485.46 411.259c-118.16 191.353-384.17 299.089-633.439-93.546-137.312-216.039-51.655 154.703-240.435 298.201-352.689 268.323-502.684-245.13-683.361 3.079"/><path d="M1486.27 412.225c-115.46 190.984-379.72 301-632.778-94.573-138.914-216.97-47.925 159.687-238.576 303.481-350.812 264.659-510.739-251.311-690.907-7.229"/><path d="M1486.87 412.921c-113.01 190.831-375.28 302.905-632.146-95.609-140.519-217.9-43.94 164.953-236.23 308.823C269.553 887.126 99.202 368.577-80.193 608.812"/><path d="M1487.47 413.617c-110.57 190.677-370.83 305.309-631.523-96.647-141.893-219.05-40.196 170.434-233.892 314.162-347.303 257.541-527.57-263.516-706.454-27.411"/><path d="M1488.28 414.581c-107.89 190.303-366.41 307.211-630.643-97.897-143.488-219.978-36.23 175.695-232.053 319.438C279.925 890.215 89.769 366.657-88.601 598.634"/><path d="M1488.87 415.277c-105.44 190.146-361.99 309.107-630.016-98.937-145.09-220.908-32.503 181.171-229.729 324.774-343.79 250.421-544.068-275.416-721.922-47.57"/><path d="M1489.47 415.969c-103.01 189.988-357.59 311.003-629.384-99.972-146.683-221.835-28.556 186.427-227.411 330.11-342.148 246.971-552.29-281.356-729.887-57.922"/><path d="M1490.27 416.932c-100.34 189.61-353.16 313.399-628.508-101.225-148.042-222.98-24.848 191.899-225.099 335.445-340.737 243.739-560.99-287.355-738.065-68.049"/><path d="M1490.86 417.627c-97.9 189.448-348.77 315.286-627.893-102.269-149.639-223.909-20.916 197.148-223.288 340.711C301.302 896.197 70.967 362.84-105.587 578.015"/><path d="M1491.67 418.59c-95.48 189.287-344.39 317.174-627.264-103.306C713.18 90.45 847.18 517.9 643.416 661.327 306.68 898.002 65.768 361.824-109.767 572.934"/><path d="M1492.26 419.286c-92.82 188.903-340.02 319.054-626.426-104.573-152.819-225.76-13.048 208.144-218.7 351.371-335.332 233.436-586.07-305.213-761.08-98.235"/><path d="M1492.84 419.979c-90.39 188.737-335.4 321.216-625.815-105.62-154.179-226.906-9.372 213.607-216.907 356.634C317.403 901.097 56.362 359.917-118.12 562.765"/><path d="M1493.64 420.942c-87.97 188.571-331.03 323.095-625.189-106.661-155.762-227.83-5.476 218.847-214.63 361.96C322.485 902.605 51.657 358.966-122.294 557.685"/><path d="M1494.25 421.641c-85.58 187.902-326.92 325.191-624.342-107.923C712.566 84.966 868.35 538.306 657.55 681.003 328.113 904.194 47.253 357.819-126.424 552.125"/><path d="M1494.83 422.332c-83.17 187.732-321.63 326.683-623.755-108.978-158.212-229.835 2.327 229.824-210.584 372.542-327.289 220.291-618.195-328.821-791.34-138.648"/><path d="M1495.63 423.296c-80.52 187.342-317.52 328.772-623.142-110.025-159.792-230.757 5.969 235.278-208.325 377.864C338.481 907.464 37.593 356.127-135.015 542.17"/><path d="M1496.21 423.99c-78.11 187.17-313.19 330.637-622.547-111.079-161.378-231.681 9.864 241.012-206.074 383.183C343.797 909.24 32.894 355.177-139.176 537.088"/><path d="M1496.79 424.685c-75.7 186.996-309.1 332.718-621.467-112.072C712.362 80.008 889.307 559.136 671.237 700.83 349.103 911.013 27.938 353.946-143.334 532.007"/><path d="M1497.59 425.648c-73.07 186.603-304.79 334.581-620.865-113.122C712.188 79 894.328 564.497 674.648 706.28 354.379 912.78 23.238 353-147.492 526.93"/><path d="M1498.17 426.342c-70.67 186.426-300.46 336.939-620.287-114.18-166.376-234.73 21.735 257.98-199.842 399.068C359.918 914.826 18.539 352.052-151.648 521.85"/><path d="M1498.74 427.036c-68.26 186.25-296.15 338.793-619.467-115.46C711.316 75.924 904.845 574.78 681.659 715.957 364.932 916.304 13.842 351.104-155.802 516.769"/><path d="M1498.55 426.845c-66.76 182.692-297.31 340.846-622.39-114.665-168.6-236.251 21.45 257.696-199.928 397.575-316.818 200.289-666.3-357.268-828.531-188.694"/><path d="M1498.37 426.66c-65.5 178.851-298.71 342.615-624.82-113.812-169.246-236.851 17.554 251.966-202.247 390.767C354.161 904.066 6 353.367-148.782 525.355"/><path d="M1498.17 426.467c-63.98 175.295-299.86 344.669-627.238-112.953-169.888-237.451 13.676 246.735-204.803 384.178C348.639 897.806 2.102 354.751-145.252 529.657"/><path d="M1497.99 426.279C1435.26 597.734 1196.98 773 868.065 313.898 697.532 75.848 877.832 554.9 661.192 691.55 343.15 892.047-1.56 355.915-141.709 533.959"/><path d="M1497.79 426.084c-61.44 168.12-302.15 348.776-632.568-111.302-171.173-238.649 5.848 235.267-209.207 370.844C337.626 885.786-5.472 356.802-138.147 538.271"/><path d="M1497.62 425.894c-60.2 164.282-303.3 350.829-634.999-110.445-172.047-239.03 1.954 230.032-211.547 364.033C332.366 879.807-9.352 358.189-134.575 542.583"/><path d="M1497.42 425.697c-58.68 160.727-304.21 352.664-637.666-109.868-172.946-239.91-1.977 224.295-213.891 357.224C326.607 873.764-12.994 359.358-130.988 546.901"/><path d="M1497.25 425.506c-57.43 156.89-305.61 354.436-640.086-109.01-173.588-240.51-6.143 218.775-215.98 350.695C321.351 867.786-16.883 360.247-127.381 551.224"/><path d="M1497.06 425.308C1441.14 578.644 1190.31 781.8 854.333 317.38 680.108 76.272 844.247 530.413 636.001 661.263 315.824 861.525-20.739 361.641-123.762 555.552"/><path d="M1496.89 425.113c-54.68 149.501-307.9 358.547-645.404-107.351-174.865-241.706-14.005 207.793-220.69 337.072C310.333 855.766-24.357 362.815-120.13 559.883"/><path d="M1496.7 424.915c-53.4 146.167-309.04 360.602-647.821-106.492C673.143 76.337 830.92 520.471 625.827 648.682 304.788 849.498-28.485 363.921-116.248 564.495"/><path d="M1496.53 424.719c-52.15 142.332-310.19 362.658-650.46-105.411C669.695 76.624 823.919 515.83 620.911 643.037 299.529 843.52-32.084 365.1-112.583 568.837"/><path d="M1496.34 424.516c-50.64 138.781-311.32 364.716-653.115-104.827-177.268-243.564-25.856 191.057-227.759 317.137-321.461 200.435-651.14-270.543-724.367-63.641"/><path d="M1496.18 424.318c-49.4 134.947-312.73 366.492-655.518-103.961C662.76 76.195 810.603 505.885 610.529 630.68 288.527 831.506-39.736 367.406-105.194 577.54"/><path d="M1495.99 424.113c-47.88 131.396-313.86 368.551-657.903-103.093-178.763-244.538-34.268 179.998-232.51 303.511-322.57 200.716-648.883-255.937-707.057-42.632"/><path d="M1495.83 423.913c-46.87 127.782-315 370.609-660.533-102.006-179.395-245.136-37.99 174.529-234.631 296.979C277.497 818.99-46.864 369.784-97.747 586.262"/><path d="M1495.64 423.705c-45.36 124.233-316.13 372.671-663.169-101.417-180.022-245.732-41.978 168.777-237.015 290.167C272.012 813.236-50.643 371.197-94 590.632"/><path d="M1495.48 423.502c-44.12 120.4-317.27 374.731-665.553-100.545C649.279 76.63 783.956 485.98 590.524 606.31 266.515 806.984-54.428 372.114-90.222 595.01"/><path d="M1495.3 423.291c-42.61 116.852-318.17 376.575-668.188-99.953-181.533-247.204-49.94 157.771-241.533 276.824-324.31 200.85-643.763-226.629-672.02-.772"/><path d="M1495.15 423.088c-41.38 113.02-319.57 378.353-670.804-98.861-182.158-247.8-53.942 152.015-243.928 270.009-324.874 200.744-642.112-219.5-663.056 9.54"/><path d="M1494.97 422.877c-39.87 109.472-320.71 380.415-673.176-97.985-182.782-248.395-58.181 146.476-246.326 263.194C250.293 789.008-65.474 375.655-78.577 608.445"/><path d="M1494.81 422.669c-38.63 105.641-321.84 382.479-675.802-97.39-183.633-248.77-61.931 141.001-248.727 256.38-325.473 201.101-639.47-204.575-645.02 31.184"/><path d="M1494.63 422.454c-37.12 102.094-322.96 384.545-678.152-96.507C632.23 76.585 750.299 461.408 565.38 576.016 239.35 777.015-72.661 378.3-70.885 617.248"/><path d="M1494.48 422.242c-36.12 98.484-324.1 386.612-680.738-95.403-184.862-249.954-70.2 129.701-253.503 243.256C233.886 770.774-76.365 379.24-66.997 621.661"/><path d="M1494.3 422.024c-34.61 94.937-325.22 388.679-683.337-94.8-185.735-250.827-74.194 124.443-255.91 236.444C228.671 764.814-80.041 380.682-63.109 626.077"/><path d="M1494.15 421.812c-33.37 91.108-326.61 390.463-685.683-93.914-186.346-251.42-78.221 118.681-258.32 229.63-326.936 201.046-633.615-175.619-609.344 72.97"/><path d="M1493.98 421.59c-31.87 87.561-327.74 392.534-688.239-92.801C618.56 77 723.256 441.927 545.274 551.891 217.791 752.841-87.361 383.082-55.257 634.93"/><path d="M1493.83 421.374c-30.63 83.732-328.86 394.603-690.834-92.193-187.787-252.378-86.258 107.657-262.88 216.289-327.77 201.136-630.872-161.152-591.424 93.894"/><path d="M1493.66 421.148c-29.13 80.188-329.98 396.677-693.142-91.291C612.135 76.89 709.991 431.969 535.226 539.335 206.914 740.378-94.381 385.283-47.327 643.81"/><path d="M1493.51 420.929c-28.12 76.578-330.88 398.529-695.463-90.396-188.984-253.555-94.568 96.348-267.445 202.95C201.511 734.649-97.981 386.746-43.346 648.254"/><path d="M1493.35 420.702c-26.63 73.034-332.01 400.603-698.27-89.557-189.841-254.425-98.349 90.866-269.861 196.139C196.344 728.706-101.333 387.998-39.348 652.707"/><path d="M1493.2 420.484c-25.39 69.206-333.39 402.391-700.583-88.661C602.176 76.81 689.989 417.142 520.336 521.149 190.916 722.477-104.689 389.246-35.083 657.441"/><path d="M1493.04 420.253c-23.89 65.662-334.51 404.469-702.87-87.75C598.913 77.125 683.495 412.057 515.242 515.24 185.55 716.763-108.482 390.449-31.031 661.911"/><path d="M1492.89 420.027c-22.65 61.835-335.62 406.546-705.418-87.125-191.845-255.963-110.695 74.29-277.083 176.211C180.16 710.547-111.776 391.716-26.969 666.382"/><path d="M1492.73 419.795c-21.15 58.291-336.74 408.624-707.929-85.993C592.374 77.256 670.054 402.325 505.3 503.205 175.033 704.616-115.059 392.989-22.897 670.858"/><path d="M1492.58 419.564c-20.14 54.683-337.85 410.705-710.189-85.074C589.387 77.362 663.36 397.466 500.474 497.086 169.678 698.412-118.793 394.209-18.781 675.348"/><path d="M1492.42 419.328c-18.65 51.14-338.96 412.786-712.713-84.438-193.58-257.709-123.086 57.21-284.335 155.79-331.029 202.028-617.41-95.187-510.044 189.157"/><path d="M1492.29 419.098c-17.42 47.313-340.35 414.583-714.982-83.519-194.651-258.355-127.112 51.945-286.49 149.266C158.997 686.506-125.493 397-10.537 684.331"/><path d="M1492.13 418.86c-15.92 43.77-341.46 416.666-717.469-82.377-195.223-258.935-131.169 46.178-288.908 142.461C153.901 680.586-128.724 398.29-6.146 689.11"/><path d="M1491.99 418.622c-14.69 39.944-342.57 418.753-719.953-81.726-195.782-259.511-135.456 40.631-291.319 135.659C148.381 674.623-132.127 399.323-2.201 693.347"/><path d="M1491.83 418.379c-13.19 36.401-343.67 420.839-722.181-80.793C573.306 77.497 630.4 372.735 475.916 466.443 143.325 668.715-135.532 400.848 1.979 697.86"/><path d="M1491.69 418.14c-12.18 32.794-344.55 422.708-724.634-79.639-196.903-260.665-143.539 29.601-295.883 122.338-333.14 201.692-610.11-58.959-464.72 241.825"/><path d="M1491.53 417.893c-10.68 29.252-345.65 424.799-727.101-78.98-197.686-261.02-147.595 23.836-298.523 115.758-333.389 201.902-607.966-51.467-455.23 252.522"/><path d="M1491.4 417.653c-9.45 25.426-347.02 426.604-729.318-78.041-198.504-261.88-151.622 18.572-300.935 108.957-333.64 202.109-606.553-43.822-446.233 263.153"/><path d="M1491.25 417.401c-7.96 21.884-348.13 428.698-731.501-77.088-199.044-262.45-155.675 12.809-303.337 102.161C122.268 644.515-148.731 405.807 19.19 716.268"/><path d="M1491.11 417.156c-6.72 18.058-349.23 430.79-734.185-76.206-199.59-263.022-159.731 7.045-305.481 95.648-334.387 202.251-603.48-29.235-427.983 284.211"/><path d="M1490.96 416.902c-5.23 14.516-350.33 432.886-736.359-75.249-200.127-263.593-163.752 1.784-307.881 88.853C111.831 632.689-155.079 408.711 27.753 725.36"/><path d="M1490.82 416.654c-4.22 10.909-351.42 434.981-738.53-74.295-200.664-264.163-167.805-3.98-310.283 82.058-335.128 202.398-600.121-14.355-409.95 305.496"/><path d="M1490.67 416.394c-2.73 7.368-352.52 437.083-740.937-73.609-201.419-264.51-172.084-9.522-312.41 75.552-335.621 202.335-598.912-6.97-400.924 316.144"/><path d="M1490.54 416.144c-1.5 3.541-353.88 438.896-743.328-72.43-202.214-265.362-175.871-15-314.807 68.76-335.855 202.552-596.989.256-391.67 326.57"/><path d="M1490.39 415.882s-354.98 440.999-745.462-71.457c-202.734-265.927-180.147-20.541-317.194 61.972-336.346 202.49-595.279 7.709-382.642 337.221"/><path d="M1491.04 416.698s-355.03 439.997-744.32-69.31c-202.925-265.203-182.018-23.026-318.799 59.771-335.845 202.559-591.363 7.229-385.304 333.886"/><path d="M1491.7 417.512s-355.09 438.997-743.176-67.159c-203.113-264.478-183.392-25.446-320.666 57.289-335.31 203.13-587.179 7.033-387.963 330.553"/><path d="M1492.36 418.328s-355.15 437.995-741.781-64.729c-203.305-263.755-185.264-27.932-322.271 55.087C93.235 611.6-154.959 415.238 37.155 735.337"/><path d="M1493.02 419.142s-355.45 437.213-740.606-62.076C548.92 94.036 565.281 326.649 428.54 409.954 93.939 612.435-150.838 415.525 34.433 732.486"/><path d="M1493.9 420.229s-355.77 435.93-739.488-60.425C550.734 97.5 565.676 327.187 428.908 409.992c-334.528 203.492-575.389 6.1-396.963 319.922"/><path d="M1494.55 421.043s-355.82 434.93-738.303-57.772c-203.865-261.578-190.372-35.319-327.105 47.99-334.055 203.06-571.267 4.9-399.916 315.804"/><path d="M1495.21 421.854s-355.88 433.932-737.149-55.616c-204.049-260.853-192.238-37.803-328.966 45.509-333.55 203.131-567.077 4.708-402.57 312.474"/><path d="M1495.87 422.674s-355.95 432.927-735.774-53.194c-204.249-260.131-193.85-40.007-330.579 43.305-333.285 203.415-562.914 4.504-405.5 308.853"/><path d="M1496.52 423.486s-356 431.929-734.611-51.039c-204.432-259.404-195.714-42.489-332.175 41.109-333.042 203.202-558.987 4.028-408.417 305.239"/><path d="M1497.18 424.298s-355.36 430.274-733.46-48.884c-204.384-258.897-197.347-45.192-333.804 38.409-332.505 203.775-555.03 4.054-411.303 302.127"/><path d="M1497.84 425.112s-355.42 429.273-732.058-46.451c-204.574-258.173-198.953-47.393-335.406 36.21C98.11 618.432-120.506 418.226 15.889 713.098"/><path d="M1498.5 425.924s-355.48 428.274-730.905-44.297c-204.525-257.665-200.817-49.875-337.265 33.73C98.602 619.491-116.363 418.52 13.19 710.255"/><path d="M1499.37 427.007s-355.53 427.278-729.735-42.137c-204.702-256.937-202.676-52.357-338.855 31.536C99.298 620.33-111.979 419.096 10.466 707.41"/><path d="M1500.03 427.82s-355.85 425.995-728.324-39.701c-204.889-256.212-204.046-54.776-340.454 29.338-331.241 203.71-539.102 1.927-423.231 287.389"/><path d="M1500.69 428.634s-355.91 424.995-727.179-37.55C568.436 135.598 567.6 333.826 431.196 417.942 100.492 622.225-103.458 419.958 5.312 702"/><path d="M1501.35 429.444s-355.97 423.999-726.017-35.391c-205.255-254.759-207.771-59.74-343.674 24.443C100.968 622.788-99.297 420.258 2.632 699.164"/><path d="M1502.01 430.254s-356.02 423.002-724.828-32.732c-205.435-254.031-209.368-61.938-345.266 22.249-330.215 203.861-526.827.565-431.97 276.554"/><path d="M1502.67 431.068s-356.09 422.001-723.687-30.581c-205.622-253.306-211.002-64.64-347.128 19.767-329.447 204.215-522.382.652-434.359 273.507"/><path d="M1503.32 431.88s-356.14 421.003-722.269-28.145c-205.807-252.58-212.864-67.123-348.723 17.571-329.175 204.503-518.463.173-437.537 269.609"/><path d="M1503.99 432.69s-356.46 419.724-721.11-25.984c-205.722-251.569-214.458-69.32-350.311 15.377-328.928 204.293-514.53-.3-440.443 266.001"/><path d="M1504.86 433.768s-356.5 418.731-719.918-23.816c-206.152-251.121-216.307-71.797-351.919 12.686-328.644 204.59-510.816-.549-443.572 262.616"/><path d="M1505.52 434.58s-356.56 417.732-718.509-21.38c-206.336-250.395-217.937-74.498-353.513 10.49-328.633 204.596-506.895-1.027-446.484 259.004"/><path d="M1506.18 435.388s-356.62 416.737-717.341-19.218c-206.512-249.666-219.528-76.695-355.361 8.014-327.859 204.953-502.467-1.436-449.124 255.68"/><path d="M1506.84 436.198s-356.91 415.96-716.182-17.06C583.967 170.2 569.274 339.963 433.71 424.959 106.359 629.985-64.567 423.331-18.32 677.031"/><path d="M1507.49 437.004s-356.95 414.966-714.735-14.612c-206.863-248.208-223.235-81.653-358.791 3.347-327.333 205.037-494.34-2.099-454.928 248.466"/><path d="M1508.16 437.816s-357.27 413.685-713.588-12.456c-207.045-247.481-224.598-84.07-360.15.934-327.057 205.327-490.384-2.075-457.803 245.359"/><path d="M1508.82 438.623s-357.33 412.692-712.413-10.292C589.19 181.58 569.96 341.784 434.679 427.075c-326.545 205.403-486.448-2.546-460.7 241.755"/><path d="M1509.47 439.43s-357.37 411.697-711.204-7.628c-207.392-246.022-228.299-89.026-363.573-3.73C108.892 633.33-47.096 424.898-28.673 666.001"/><path d="M1510.35 440.504s-357.42 410.708-710.007-5.453c-207.551-245.288-229.874-91.216-365.137-5.914-325.776 205.274-478.1-3.922-466.511 234.049"/><path d="M1511.01 441.311s-357.7 409.933-708.572-3.006c-207.723-244.558-231.49-93.912-366.978-8.387-325.263 205.349-474.165-4.395-469.142 230.729"/><path d="M1511.67 442.117s-357.75 408.94-707.396-.841c-207.895-243.828-233.337-96.389-368.554-10.575-324.749 205.424-469.966-4.585-472.035 227.125"/><path d="M1512.33 442.921s-358.06 407.665-706.208 1.329c-208.06-243.097-234.915-98.582-369.891-12.982C111.766 636.99-29.794 426.215-38.922 655.014"/><path d="M1512.99 443.725s-358.11 406.674-704.762 3.78c-208.459-242.145-236.757-101.056-371.724-15.45C112.06 637.789-25.55 427.033-41.534 652.2"/><path d="M1513.65 444.527s-358.38 405.903-703.568 5.953c-208.621-241.413-238.099-103.466-373.288-17.635C112.87 638.657-21.083 427.136-44.124 649.393"/><path d="M1514.31 445.332s-358.44 404.911-702.392 8.119c-208.79-240.682-239.941-105.941-374.859-19.822-323.642 206.108-453.68-5.898-483.542 213.231"/><path d="M1514.97 446.131s-358.48 403.923-700.93 10.578c-208.949-239.948-241.774-108.413-376.681-22.288-323.121 206.189-449.73-6.364-486.416 209.637"/><path d="M1515.85 447.201s-358.75 403.157-699.717 12.76c-209.101-239.212-243.337-110.6-377.999-24.685C115.043 641.483-7.871 428.667-51.641 641.259"/><path d="M1516.52 448s-359.06 401.887-698.519 14.937c-209.257-238.476-244.933-113.289-379.815-27.148C115.88 642.361-3.606 428.998-54.194 638.464"/><path d="M1517.18 448.801s-359.11 400.898-697.296 17.613c-209.418-237.743-246.766-115.762-381.375-29.331C116.46 643.45.891 429.603-56.512 635.944"/><path d="M1517.84 449.598s-359.38 400.132-696.081 19.794C612.19 232.386 573.434 351.446 438.838 437.884 117.314 644.335 5.175 429.94-59.043 633.157"/><path d="M1518.5 450.394s-359.42 399.145-694.617 22.253C613.924 236.594 573.73 352.23 439.145 438.675 117.911 645.426 9.691 430.547-61.833 630.576"/><path d="M1519.17 451.189s-359.69 398.384-693.388 24.445c-210.099-235.313-251.731-123.1-386.037-36.362-321.196 206.774-425.487-8.587-503.822 188.322"/><path d="M1519.83 451.981s-359.98 397.121-692.15 26.636c-210.238-234.573-253.276-125.281-387.829-38.816-320.664 206.861-421.29-9.266-506.4 185.025"/><path d="M1520.49 452.778s-360.71 396.793-690.679 29.099c-210.855-233.399-255.097-127.749-389.375-40.993-320.14 206.943-417.078-9.449-509.256 181.438"/><path d="M1521.37 453.835s-360.74 395.818-689.421 31.301c-210.983-232.655-256.892-130.208-390.888-43.158C120.966 648.95 27.699 431.792-71.281 619.562"/><path d="M1522.04 454.625s-360.78 394.84-688.189 33.494c-211.119-231.913-258.199-132.605-392.673-45.608C121.879 649.854 32.307 432.432-73.734 616.802"/><path d="M1522.7 455.414s-361.04 394.081-686.685 35.971c-211.256-231.173-260-135.067-394.195-47.777C122.792 650.757 36.651 432.786-75.922 614.325"/><path d="M1523.37 456.199s-361.07 393.106-685.438 38.172C626.547 263.942 576.14 356.846 442.196 443.929c-318.46 207.742-400.903-10.494-520.53 167.649"/><path d="M1524.04 456.981s-361.35 391.856-684.147 40.389c-211.495-229.68-263.301-139.693-397.221-52.595-318.171 207.557-396.677-11.16-523.351 163.59"/><path d="M1524.71 457.763s-361.38 390.88-682.878 43.088c-211.628-228.937-264.862-142.37-398.734-54.76-317.635 207.648-392.711-11.62-526.17 160.02"/><path d="M1525.38 458.539s-361.41 389.91-681.607 45.298c-211.744-228.19-266.636-144.823-400.486-57.199-317.583 207.68-388.729-12.072-528.934 156.963"/><path d="M1525.15 458.302s-360.54 388.503-679.594 44.27c-29.295-31.694-55.533-57.261-79.526-78.053-147.24-126.423-204.398-56.31-319.779 17.495-81.463 52.27-136.987 80.482-191.798 92.09-94.644 20.166-153.703 1.821-212.217 4.728C.038 540.606-40.63 551.549-83.86 605.271"/><path d="M1524.7 457.795s-359.94 386.807-678.102 43.166c-29.045-31.415-55.061-57.204-79.063-77.999-145.089-126.404-203.33-57.931-318.82 14.355-85.33 53.26-133.085 84.714-190.111 96.28-95.451 19.308-151.266 6.362-212.198 9.948-43.395 2.364-86.72 9.971-128.734 63.597"/><path d="M1524.48 457.554s-359.34 385.117-676.583 42.076c-28.793-31.134-54.816-56.926-78.594-77.942-143.158-126.163-202.51-59.83-318.106 10.94-88.702 54.314-129.176 88.949-188.154 100.758-95.991 18.734-149.079 10.622-212.428 14.889-44.59 2.955-90.831 6.942-131.63 60.473"/><path d="M1524.03 457.045s-358.48 383.706-674.59 41.039c-28.803-31.137-54.343-56.868-78.129-77.887-141.466-125.704-201.701-61.733-317.145 7.802-92.309 55.584-124.774 93.246-186.231 104.73-96.766 18.378-146.896 14.881-212.665 19.827-46.02 3.763-95.413 4.349-134.736 58.068"/><path d="M1523.81 456.806s-357.88 382.014-673.083 39.946c-28.551-30.857-53.868-56.811-77.661-77.832-139.537-125.462-200.886-63.633-316.438 4.385-96.177 56.572-120.861 97.482-184.535 108.925-97.308 17.802-144.707 19.141-212.865 25.269-46.985 4.133-99.301 1.098-137.146 55.006"/><path d="M1523.36 456.296S1166.34 836.9 852.277 495.207c-28.3-30.577-53.625-56.533-77.195-77.776-137.841-125.003-200.336-65.819-315.968 1.185-99.787 57.842-116.946 101.718-182.577 113.401-97.852 17.227-142.288 23.182-213.098 30.207-48.184 4.723-103.163-1.651-140.053 51.879"/><path d="M1523.14 456.056s-356.43 378.91-669.588 37.813c-28.047-30.297-53.15-56.475-76.728-77.72-135.652-124.479-199.526-67.721-315.005-1.952-103.66 58.828-113.029 105.955-180.879 117.594-98.629 16.871-140.099 27.444-213.332 35.147-49.382 5.311-107.52-4.466-142.93 49.253"/><path d="M1522.69 455.542s-355.81 377.225-668.042 36.731c-28.055-30.299-52.902-56.196-76.285-78.165-133.944-124.015-198.966-69.901-314.289-5.364-107.268 60.098-108.844 110.478-178.911 122.075-99.168 16.297-137.901 31.708-213.29 40.373-50.579 5.902-111.643-7.497-145.836 46.128"/><path d="M1522.46 455.306s-354.95 375.813-666.052 35.695c-27.572-30.239-52.429-56.139-75.82-78.111-132.249-123.554-198.42-72.086-313.331-8.501-111.144 61.083-104.921 114.716-177.21 126.269-99.946 15.94-135.708 35.969-213.754 45.53-52.04 6.206-115.775-10.533-148.488 43.282"/><path d="M1522.02 454.796s-354.36 374.121-664.547 34.6c-27.319-29.959-52.184-55.861-75.352-78.054-130.317-123.313-197.608-73.988-312.629-11.921-115.021 62.068-100.995 118.956-175.013 130.53-100.491 15.363-133.28 40.012-213.981 50.469-53.24 6.795-119.877-13.067-151.372 40.655"/><path d="M1521.79 454.558S1168.3 827.27 859.015 488.346c-27.329-29.961-51.709-55.802-74.885-77.998-128.615-122.851-197.058-76.172-311.928-15.339-118.636 63.334-97.066 123.197-173.306 134.725-100.775 15.071-131.082 44.276-213.946 55.692-54.44 7.383-124.012-16.103-154.288 37.525"/><path d="M1521.35 454.05s-352.9 371.018-661.052 32.469c-27.077-29.681-51.466-55.525-74.419-77.943-126.918-122.389-196.514-78.357-310.972-18.476-122.518 64.316-92.872 127.72-171.601 138.92-101.554 14.713-128.883 48.538-214.176 60.63-55.61 8.472-128.121-18.64-156.915 35.178"/><path d="M1521.12 453.803s-352.29 369.333-659.503 31.39c-26.821-29.4-50.985-55.465-73.944-77.884-125.204-121.924-196.215-80.821-310.254-21.888-126.394 65.301-88.937 131.965-169.624 143.404-102.095 14.14-126.675 52.806-214.622 65.794-56.84 8.559-132.285-22.178-159.859 31.548"/><path d="M1520.68 453.301s-351.45 367.917-657.545 30.344c-26.57-29.12-50.513-55.408-73.481-77.83-123.281-121.683-195.682-83.01-309.312-25.03-130.282 66.279-84.737 136.489-167.918 147.597-102.878 13.78-124.245 56.848-214.593 71.012-58.043 9.145-136.406-24.718-162.758 28.915"/><path d="M1520.45 453.058s-350.84 366.23-656.013 29.259c-26.579-29.124-50.267-55.13-73.01-77.774-121.571-121.218-195.127-85.191-308.836-28.225-134.164 67.261-80.797 140.734-165.94 152.08-103.392 13.707-122.036 61.115-214.811 75.954-59.274 9.231-140.547-27.757-165.447 25.565"/><path d="M1520 452.55s-349.98 364.818-654.252 28.442c-26.327-28.843-49.792-55.071-72.544-77.718-119.607-120.472-194.353-87.596-307.882-31.363-137.82 68.021-76.854 144.978-163.995 156.058-103.942 13.129-119.829 65.38-215.005 81.394-60.74 9.534-144.962-31.083-168.377 22.431"/><path d="M1519.77 452.316s-349.39 363.123-652.531 27.121c-26.074-28.563-49.549-54.794-72.078-77.662-117.906-120.011-194.076-90.066-307.194-34.786-141.711 68.998-72.645 149.507-162.018 160.539-104.724 12.769-117.39 69.425-215.231 86.33-61.914 10.622-148.824-33.341-171.016 20.081"/><path d="M1519.33 451.795s-348.78 361.437-650.991 26.04c-26.081-28.565-49.068-54.733-71.867-77.887-116.191-119.544-193.518-92.246-306.482-38.198-145.595 69.979-68.697 153.754-160.296 164.74-105.006 12.478-115.174 73.694-215.443 91.275-63.114 11.21-152.97-36.381-173.908 17.452"/><path d="M1519.1 451.562s-347.92 360.028-649.227 25.227c-25.597-28.504-48.824-54.456-71.167-78.05-114.487-119.081-193.24-94.715-305.529-41.335C343.691 428.36 428.695 515.689 334.6 526.343c-105.787 12.119-112.96 77.961-215.4 96.497-64.318 11.795-157.129-39.426-176.843 14.315"/><path d="M1518.66 451.052s-347.33 358.335-647.492 23.913c-25.343-28.223-48.347-54.396-70.698-77.993-112.779-118.616-192.695-96.899-304.834-44.753-153.379 71.932-60.527 162.533-156.592 173.422C232.739 537.685 228.3 607.869 123.458 627.58c-65.786 12.098-161.52-42.252-179.779 11.179"/><path d="M1518.43 450.815s-346.47 356.93-645.709 23.109c-25.088-27.942-48.1-54.118-70.227-77.936-110.803-117.866-192.408-99.366-303.87-47.885-157.534 72.625-56.539 167.285-154.635 177.404-106.853 11.468-108.293 86.278-216.063 106.596-66.99 12.685-165.417-45.012-182.45 8.328"/><path d="M1517.99 450.305s-345.88 355.234-643.992 21.788c-25.099-27.945-47.625-54.06-69.761-77.881-109.1-117.402-191.905-102.055-303.188-51.308-161.434 73.599-52.577 171.535-152.648 181.887-107.407 10.889-106.074 90.546-216.021 111.817-68.427 13.488-170.315-47.908-185.595 5.909"/><path d="M1517.76 450.064s-345.28 353.546-642.468 20.7c-24.843-27.664-47.377-53.78-69.288-77.822-107.386-116.936-191.356-104.238-302.489-54.724-165.36 74.072-48.351 176.069-150.919 186.089-107.924 10.814-103.619 94.597-216.232 116.759-69.632 14.073-173.952-50.387-188.27 3.056"/><path d="M1517.31 449.556s-344.42 352.132-640.718 19.879c-24.59-27.384-46.902-53.722-68.824-77.767-105.681-116.473-191.086-106.709-301.778-57.646-169.265 75.043-44.383 180.321-148.929 190.572-108.711 10.453-101.66 98.582-216.683 121.914-70.609 14.438-178.163-53.941-190.991-.304"/><path d="M1517.08 449.319s-343.13 349.786-638.965 18.572c-24.599-27.386-46.655-53.443-68.352-77.709-104.198-115.787-190.804-109.176-301.082-61.062-173.426 75.733-40.15 184.858-147.196 194.775-108.997 10.159-99.432 102.853-216.629 127.139-72.078 14.74-182.07-56.706-193.67-3.159"/><path d="M1516.64 448.81s-342.28 348.374-637.225 17.752c-24.345-27.106-46.179-53.385-67.885-77.654-102.229-115.038-190.305-111.866-300.142-64.202-177.335 76.702-36.175 189.112-145.465 198.975-109.785 9.799-96.973 106.904-216.847 132.076-73.287 15.323-186.486-59.541-196.594-5.8"/><path d="M1516.41 448.565s-341.67 346.692-635.663 16.68c-23.855-27.043-45.927-53.105-67.67-77.878C712.574 272.8 623.069 273.04 513.65 319.756c-181.26 77.176-31.941 193.651-143.231 203.247-110.297 9.726-94.74 111.178-217.046 137.022-74.49 15.91-190.649-62.586-199.53-8.934"/><path d="M1515.97 448.055s-341.08 345-633.928 15.368c-23.6-26.762-45.449-53.045-67.201-77.821-98.788-114.1-189.731-116.795-298.737-71.029-185.431 77.862-27.963 197.906-141.494 207.45-110.851 9.148-92.508 115.45-217.224 142.464-75.465 16.276-194.567-65.355-202.22-11.792"/><path d="M1515.73 447.821s-340.22 343.589-632.167 14.551c-23.611-26.765-45.205-52.767-66.734-77.765-97.31-113.415-188.967-119.201-297.796-74.168-189.607 78.545-23.947 202.665-139.493 211.936-111.375 9.07-90.041 119.502-217.436 147.402-76.676 16.857-198.992-68.193-205.182-14.938"/><path d="M1515.29 447.31s-339.62 341.898-630.425 13.242c-23.356-26.484-44.725-52.708-66.263-77.707-95.593-112.948-188.689-121.67-297.106-77.587-193.548 79.012-19.699 207.207-137.752 216.141-112.16 8.71-87.804 123.776-217.378 152.626-78.148 17.158-203.178-71.247-208.106-17.577"/><path d="M1514.84 446.809s-338.77 340.486-628.675 12.423c-23.101-26.203-44.48-52.429-65.563-77.869-94.114-112.263-188.424-124.141-296.168-80.726-197.729 79.693-15.707 211.465-135.745 220.627-112.454 8.413-85.565 128.049-217.589 157.564-79.36 17.739-207.378-74.306-210.81-20.441"/><path d="M1514.62 446.561s-338.18 338.797-627.16 11.336c-22.845-25.922-44.232-52.151-65.091-77.812-92.129-111.509-188.146-126.608-295.709-83.924-201.672 80.158-11.453 216.008-134 224.833-113.24 8.054-83.092 132.105-218.024 162.724-80.569 18.323-211.536-76.859-213.77-23.584"/><path d="M1514.17 446.062s-337.59 337.103-625.167 10.303c-22.854-25.925-43.754-52.091-64.621-77.755-90.414-111.041-187.646-129.297-294.767-87.061-205.855 80.839-7.192 220.553-132.021 228.819-113.765 7.976-81.113 136.095-217.966 167.946-81.78 18.905-215.738-79.918-216.474-26.446"/><path d="M1513.94 445.817s-337.42 336.354-623.644 9.216c-22.597-25.643-43.505-51.812-64.148-77.696-88.923-110.353-187.368-131.764-294.075-90.478-210.034 81.521-3.197 224.814-130.008 233.31-114.319 7.397-78.867 140.371-218.166 172.888-83.487 19.423-220.43-83.04-219.67-29.372"/><path d="M1513.5 445.303s-336.82 334.667-622.12 8.132c-22.341-25.362-43.024-51.751-63.674-77.638-87.431-109.663-186.857-134.448-293.382-93.893-213.98 81.986.832 229.579-128.258 237.518-114.838 7.322-76.386 144.429-218.363 177.831-84.464 19.788-224.129-86.031-222.367-32.232"/><path d="M1513.26 445.074s-335.97 333.252-620.146 7.089c-22.352-25.365-42.781-51.473-63.474-77.866-85.72-109.196-186.602-136.923-292.457-97.036-218.209 82.157 5.11 234.127-126.239 242.006-115.635 6.958-74.137 148.704-218.54 183.269-85.68 20.367-228.32-88.596-225.09-35.102"/><path d="M1512.82 444.555s-335.37 331.568-618.603 6.013c-22.094-25.082-42.528-51.193-62.996-77.806-83.956-108.221-186.316-139.386-291.754-100.447-222.386 82.841 9.108 238.39-124.485 246.216-115.921 6.664-71.884 152.982-218.732 188.214-86.888 20.951-232.511-91.652-228.049-38.244"/><path d="M1512.59 444.327s-334.55 329.653-616.624 4.977c-21.838-24.802-42.05-51.134-62.527-77.749-82.24-107.753-186.09-142.362-290.822-103.588-226.615 83.012 13.389 242.94-122.231 250.488-116.45 6.585-69.397 157.041-218.934 193.152-88.104 21.531-236.735-94.719-231.003-40.895"/><path d="M1512.14 443.815s-333.69 328.244-615.125 3.881c-21.582-24.521-41.803-50.855-62.057-77.692-80.751-107.064-185.561-144.548-290.149-107.01-230.811 83.688 17.439 247.71-120.472 254.697-117.242 6.222-67.139 161.319-218.868 198.374-89.551 22.33-241.156-97.063-233.955-43.544"/><path d="M1511.91 443.568s-333.09 326.558-613.584 2.8c-21.357-24.741-41.32-50.794-61.581-77.633-79.253-106.373-185.547-147.297-289.687-110.204-235.029 83.864 21.449 251.976-118.712 258.907-117.531 5.928-64.914 165.096-219.291 203.537-90.795 22.409-245.13-100.342-236.694-46.909"/><path d="M1511.47 443.067s-332.25 325.147-611.61 1.765c-21.102-24.46-41.074-50.516-61.113-77.576-77.765-105.685-185.057-149.989-288.756-113.345-239.266 84.033 25.74 256.53-116.683 263.399-118.327 5.564-62.652 169.375-219.491 208.475-92.277 22.705-249.362-103.412-239.422-49.78"/><path d="M1511.24 442.829s-331.65 323.457-610.098.676c-20.844-24.179-40.825-50.236-60.407-77.736-76.038-105.213-184.789-152.458-288.077-116.763-243.495 84.204 30.029 261.083-114.918 267.609-118.853 5.486-60.388 173.655-219.418 213.701C124.83 753.6-35.495 624.055-24.052 677.887"/><path d="M1510.79 442.324s-331.07 321.758-608.359-.147c-20.854-24.182-40.348-50.177-59.94-77.68-74.552-104.524-184.307-155.151-287.157-119.906-247.974 84.587 34.1 265.859-112.883 272.102-119.653 5.121-57.888 177.717-219.849 218.855-94.713 23.862-257.8-109.052-245.38-55.589"/><path d="M1510.56 442.082s-330.2 320.358-606.582-1.442c-20.596-23.9-40.096-49.896-59.462-77.62-73.05-103.831-184.027-157.615-286.461-123.318-252.198 84.762 38.12 270.129-110.884 276.097-120.671 4.979-56.119 181.932-220.267 224.018-95.691 24.226-262.012-112.114-248.09-58.452"/><path d="M1510.11 441.573s-329.61 318.666-605.071-2.534c-20.338-23.618-39.846-49.617-59.255-77.846C774.23 258.052 662.253 200.89 559.997 234.455c-256.437 84.93 42.421 274.686-108.846 280.592-120.469 4.748-53.616 185.997-219.959 229.025C134.316 769.38-35.023 629.39-19.861 682.968"/><path d="M1509.88 441.335s-328.75 317.26-603.293-3.338c-20.08-23.336-39.596-49.338-58.781-77.788C777.75 257.76 664.274 197.153 562.961 230.337c-260.675 85.098 46.723 279.243-107.073 284.805-121.262 4.385-51.111 190.06-220.147 233.966-98.391 25.101-270.716-118.037-254.048-64.259"/><path d="M1509.44 440.825s-328.17 315.57-601.559-4.648c-20.089-23.338-39.115-49.276-58.309-77.728C781.014 256.691 666.535 192.704 565.4 225.157c-264.918 85.263 50.797 284.021-105.298 289.017-121.791 4.306-48.835 194.344-220.301 239.41-99.609 25.679-274.692-120.826-256.782-67.131"/><path d="M1509.21 440.588s-327.58 313.878-599.787-5.454c-19.831-23.057-38.866-48.998-57.836-77.671-67.06-101.065-182.776-168.215-283.467-136.209-269.43 85.144 54.842 288.297-103.254 293.515-122.354 3.723-46.557 198.627-220.488 244.351-100.861 25.754-279.203-124.185-259.819-70.792"/><path d="M1508.76 440.082s-326.72 312.469-598.059-6.77c-19.574-22.775-38.618-48.718-57.365-77.612-65.331-100.593-182.289-170.906-282.805-139.633-273.684 85.305 59.195 293.362-101.473 297.728-122.887 3.643-44.043 202.693-220.675 249.29C146.6 790.204-34.778 636.609-13.883 690.204"/><path d="M1508.53 439.845s-326.13 310.777-596.555-7.861c-19.349-22.996-38.135-48.657-56.891-77.554-63.831-99.9-182.03-173.376-281.87-142.768-278.2 85.183 63.248 297.64-99.191 302.008-123.417 3.563-41.76 206.979-220.593 254.516-103.269 27.412-287.68-129.837-265.773-76.107"/><path d="M1508.08 439.336s-373.18 354.835-650.962-86.38c-62.33-99.208-181.804-176.35-281.2-146.189-282.453 85.345 67.569 302.204-97.407 306.223-124.214 3.199-39.474 211.264-221.008 259.675-104.756 27.705-291.9-132.411-268.518-78.982"/></g><defs><clipPath id="clip0"><path fill="#fff" d="M0 0h2255v1015H0z"/></clipPath></defs></svg>