<svg width="250" height="250" fill="none" xmlns="http://www.w3.org/2000/svg"><path d="M216.866 220.495c0-30.259-17.499-63.227-17.499-63.227-6.781-13.58-14.465-28.969-30.921-38.044a88.306 88.306 0 00-2.394-1.185l-17.87-8.226-8.585-7.239-13.794 13.721 5.678 40.93-6.48 1.788-6.48-1.788 5.68-40.93-13.795-13.721-8.587 7.239-17.871 8.226a87.62 87.62 0 00-2.394 1.185c-16.455 9.074-24.14 24.464-30.921 38.044 0 0-14.633 29.902-17.499 63.227a12.4 12.4 0 00-.038 1.071c0 9.867 8.54 17.893 19.035 17.893.765 0 1.53-.059 2.287-.175 5.3-.816 9.864-2.511 13.97-4.647l54.821 15.119c.138.039.277.067.416.093l.064.012c.111.024.223.049.304.059a6.426 6.426 0 002.374-.069c.143-.027.287-.056.426-.093l54.82-15.121c4.106 2.135 8.67 3.832 13.969 4.647a14.98 14.98 0 002.288.175c10.495 0 19.034-8.026 19.034-17.892 0-.359-.038-.715-.038-1.072zm-98.602 13.922l-35.753-9.861c4.127-5.207 4.43-12.727.276-18.312a14.973 14.973 0 00-7.926-5.476v-41.611l43.402 11.97.001 63.29zm56.875-33.648a14.95 14.95 0 00-7.927 5.477c-4.153 5.584-3.852 13.104.275 18.311l-35.751 9.861v-63.289l43.401-11.971.002 41.611zM125 102.573c18.096 0 42.372-22.609 42.784-60.52C168.047 15.745 155.518 0 125 0 94.48 0 81.949 15.745 82.216 42.053c.41 37.912 21.603 60.52 42.784 60.52zm-8.601-49.954c22.127 2.357 41.418-28.588 41.104-.881-.187 16.586-15.574 41.63-32.501 41.63-17.768 0-30.026-20.814-32.499-41.621-2.683-22.565 38.734-17.424 23.896.872z" fill="#000"/></svg>