<svg xmlns="http://www.w3.org/2000/svg" xmlns:xlink="http://www.w3.org/1999/xlink" viewBox="0 0 37.5 37.5"><defs><path id="a" d="M5 0h28.2v37H5z"/></defs><clipPath id="b"><use xlink:href="#a" overflow="visible"/></clipPath><g clip-path="url(#b)"><path d="M21.8 38.1c-.3-.2-.1-.7-.1-1 0-.2.2-.5-.2-.6-.4-.3-.7-.6-1.1-.9-.4-.4-.8-.8-1-1.4-.1-.2-.1-.4-.3-.6 0-.4-.5-.3-.8-.4-.4 0-.8-.1-1.2-.1-.4 0-.9-.1-1.3-.1-.5 0-1-.1-1.5-.1-.6-.1-1.1-.1-1.7-.1-.6 0-1.3-.1-1.9-.1-.3-.1-.7-.1-.6.4-.1.5 0 1.1-.1 1.6-.1.4.1.8-.1 1.2-.2 0-.1.4-.3.4-.1.2-.2.5-.2.8.1.2-.1.6-.3.4 0-.4.1-.8.2-1.2.1-.5.1-.9.2-1.4.1-.3.1-.5.1-.7 0-.5 0-.9.1-1.4-.1-.3-.7 0-1-.2-.3-.1-.6-.1-.9-.3-.4-.3-.6-.7-.8-1.1-.2-.3-.3-.7-.4-1.1-.1-.8-.1-1.6 0-2.5 0-.4.1-.8.1-1.1.1-.3.1-.7.2-1 .1-.4.2-.7.3-1-.2-.1-.4-.4-.6-.6.2-.2.2-.6.4-.9.2-.3.2-.6.4-.9.1-.4.3-.8.5-1.1.2-.4.5-.7.7-1.1.3-.2.5-.5.8-.8.2-.2.5-.4.7-.6.4-.2.7-.5 1.1-.7.5-.2.9-.5 1.4-.6.5-.1 1.1-.3 1.6-.3.4-.1.8-.1 1.2-.2.2 0-.3-.2-.3-.3-.5-.3-.9-.8-1.3-1.2-.2-.3-.5-.6-.6-.9-.2-.3-.3-.6-.5-1-.2-.2-.1-.5-.2-.8-.1-.2 0-.7-.1-.7-.3 0-.8 0-1-.3-.2-.3-.4-.6-.5-1-.1-.3-.1-.7 0-1.1.1-.2.2-.6.4-.7.3-.2.8-.2 1.1 0 .3.1-.3-.3-.4-.5-.3-.2-.6-.5-.4-.9-.2-.2-.6-.4-.6-.8-.1-.3.3-.4.3-.7-.2-.3-.4-.7-.2-1.1.2-.2.5-.3.4-.7.1-.3.2-.6.5-.9.3-.1.4-.7.7-.6.1-.2.2-.6.5-.6.5 0 .3-.6.8-.7.4.1.7-.4 1-.4.4 0 .7-.5 1.1-.4.3.2.5.2.8 0 .3-.3.7 0 .9.2.4.1.9-.1 1.2.3.2.2.7-.3.9.1.2 0 .5 0 .8.1.2.2.7.3 1 .1.3-.3.8-.2 1.1.1.4 0 .7.2 1 .4.3.3.2.8.6 1 .3.2.2.6.3.9.3.2.6.6.4.9.3.2.4.7.3 1-.1.2-.2.5-.4.6.4.2 0 .7 0 .9.3.2.3.5.1.8-.1.2-.1.5-.1.7.4.1.7.5.6 1 0 .3-.1.7-.1 1 .1.4.1.7-.1 1-.1.4-.6.4-.9.3-.2-.2-.1.5-.2.7 0 .3-.1.6-.2.9 0 .3-.2.6-.3.8-.1.3-.2.7-.4 1-.1.3-.3.5-.5.7-.1.2-.3.4-.5.6-.3.4-.7.7-1.1 1-.4.2-.2.5-.2.8 0 .4.3.7.6.9l.9.6c.3.1.5.4.8.6.3.2.6.4.9.7.6.3.9.9 1.2 1.4.3.5.4 1.1.4 1.6.1.6.2 1.3.2 1.9.1.4.1.8.2 1.2.1.4 0 .9.2 1.2-.1.4-.6.4-.9.6-.2.1-.6 0-.6.3 0 .4-.1.8-.1 1.2-.1.3-.1.6-.1 1v1.9c0 .5 0 1-.1 1.5-.2.3-.1.6-.3.8-.2.3-.2.6-.5.9-.3.2-.7.4-1.1.4-.3.1-.9-.2-.7.3-.2.1 0 .7-.3.8zm.6-1.8c.4 0 .7-.1.9-.4.3-.2.5-.5.6-.8.2-.3.2-.7.3-1.1 0-.3.1-.7 0-.9-.3.1-.6.3-1 .2-.1.2.1.6.1.9.2.2 0 .6-.3.4.1-.3 0-.6 0-1l-.3-1.5c-.1-.4-.2-.7-.3-1.1-.1-.3-.2-.7-.4-.9 0-.2-.2-.5-.3-.8-.1-.3-.2-.4-.3-.6-.2-.3-.2-.5-.4-.8-.1-.3-.2-.6-.4-.8 0-.2-.1-.3-.2-.4-.1-.2-.1-.4-.2-.7-.1-.4-.2-.7-.3-1.1-.2-.4.2-.7.3-1.1.1-.3.3-.6.4-.9 0-.3 0-.7-.1-1-.1-.5-.3-.9-.3-1.3 0-.3.1-.4.1-.8.1-.4.2-.7.1-1.1-.1-.3-.6-.2-.6.1-.2.3-.1.8-.2 1.2v.8c0 .2.3.8-.1.7-.2-.3-.2-.7-.2-1.1 0-.5 0-1 .1-1.5-.1-.3-.1-.6-.1-.9-.1-.5-.1-1-.2-1.5 0-.4-.8-.5-.9-.1-.2.4-.2.8-.2 1.3.1.3.2.6.2 1 0 .2.1.8-.2.7-.2-.4-.8-.2-.9.1-.1.6-.7 0-.9.3 0 .3-.4.5-.4.9-.1.4-.1.9.1 1.4.1.3.2.6.4.9.1.3.5.6.5 1 .1.4.6.7.6 1.1.1.3 0 .7.2 1v.9c0 .5.1 1 .2 1.5.1.4.2.9.3 1.3l.3.9c.1.3.3.7.4 1 .1.3.2.5.3.8.2.3.2.7.5.9.1.3.4.5.4.7.1.3.3.5.4.8.2.3.5.6.7.8.3.3.5.6.9.5l.4.1zm1.2-.2c.2-.2-.3.3 0 0zm-.3-3.1c.3.1.6-.1.9-.2.2-.2.1-.6-.1-.6-.3.1-.6.1-.8.2 0 .2-.1-.2-.2 0 0 .1 0 .6.2.6zm-4.6-.1c0-.3-.3-.8-.4-1.1-.1-.4-.2-.7-.3-1.1-.4.1-.8-.2-1.2-.2-.6-.1-1.1-.3-1.7-.4-.4-.1-.8-.2-1.1-.3-.4-.2-.9-.2-1.3-.3-.3-.1-.7-.1-1-.2l-1.5-.3c-.4-.1-.9-.2-.9-.7-.1-.2 0-.4-.2-.5.1-.4 0-.7 0-1.1.1-.4.1-.7.1-1.1-.1-.2.4-.9-.1-.6-.4-.2-.7-.3-1.1-.4-.2 0-.6-.4-.6 0-.1.3-.2.6-.2.9-.1.4-.1.8-.2 1.1 0 .3-.1.6-.1.9-.1.3-.1.7-.1 1.1 0 .5 0 1 .1 1.5.2.4.2.8.4 1.1.1.4.4.9.8 1 .5.1 1.1.1 1.6.2.6.1 1.2.1 1.7.1.8.1 1.7.1 2.5.2.4 0 .9.1 1.3.2.8.1 1.7 0 2.5.1.5-.1.7-.1 1-.1zm.4-.4c-.1-.3-.2.1 0 0zm3.9-.4c.4-.1.8 0 1.1-.3.4-.3-.2-.7-.5-.5-.3.1-.9.1-.7.5.1.1 0 .3.1.3zm-.2-.8c.3-.1.6-.2.8-.2.4 0 .6-.5.1-.6-.4.2-.8.3-1.2.4.2.1.2.6.3.4zm1.6-.3c.1-.2-.1.1 0 0zm-1.7-.3c.3-.1.7-.1.9-.4.2-.1.5-.2.1-.3-.3 0-.7 0-1.1.1-.3 0-.1.7.1.6zm1.7-.4c0-.5.1-1 .2-1.5.1-.4.3-1-.3-.9h-1.9c-.3 0-.7.1-1 0 .1.4.3.7.5 1.1.2.3.2.6.4.9.2.4.7-.1 1.1-.1.4 0 1 .2.9.6.1.1.3.5.2.1l-.1-.2zm-6.4 0c-.1-.3-.1-.7-.2-1-.1-.3-.3-.7-.2-1.1-.1-.3 0-.6 0-.9-.1-.7 0-1.5-.1-2.2l-.6-.9c0-.4-.2-.8-.4-1.1-.2-.3-.4-.6-.5-1-.1-.3-.1-.6-.2-.8.1-.4-.1-.9.2-1.2.2-.2.1-.3.3-.5-.4-.1-.7-.5-.8-.8-.1-.3-.1-.7 0-1 .2-.3.2-.6.5-.8-.2-.1-.6 0-.9 0-.6 0-1.3 0-1.8.3-.4.1-.8.2-1.2.5-.4.1-.7.3-1 .5-.4.1-.6.4-1 .6-.2.1-.3.3-.5.4-.3.4-.6.7-.8 1.1-.2.3-.4.6-.5.9-.2.3-.3.6-.4.9-.2.4-.3.7-.4 1.1-.1.2-.5.7 0 .7.4.1.8.3 1.3.4.2 0 .7.5.8.2 0-.4.1-.7.2-1.1.1-.3.2-.6.2-.9.1-.4.2-.7.3-1 .1-.3.3-.7.4-1-.1-.2.4-.7.4-.4-.1.4-.2.7-.3 1.1-.1.3-.2.7-.3 1-.1.3-.1.5-.2.8-.1.4-.2.7-.3 1.1 0 .3-.1.7-.1 1.1 0 .3-.2.7-.1 1-.1.4 0 .8 0 1.1v1c.2.2.7.1 1.1.2.6.1 1.3.1 2 .4.5.2.9.2 1.4.4.5.1 1 .2 1.4.4.6.2 1.2.3 1.8.4.2 0 .4.1.5.1zm6.7-.3c0-.1-.1.2 0 0zm0-.1c0-.1 0 .1 0 0zm0-.1c.1-.2-.1.1 0 0zm.1-.4s-.1.1 0 0zm.4-.8c.3-.1.8-.1.8-.3-.2-.1-.7-.4-.9-.2 0 .3-.1.4-.1.6.1-.1.2-.1.2-.1zm1-.9c-.1-.1 0 .2 0 0zm-.3 0c0-.3-.1-.6 0-.9-.1-.4-.1-.7-.1-1 0-.4-.1-.7-.1-1.1 0-.3-.1-.5 0-.7-.1-.3-.1-.7-.2-1-.1-.2-.1-.3-.2-.5l-.6-.9c-.1-.2-.3-.4-.4-.5-.2-.2-.5-.4-.7-.6-.4-.2-.7-.4-1.1-.6-.4-.3-.8-.6-1.2-1-.1-.2-.1.4-.2.5 0 .3-.2.5-.2.9s.2.8.2 1.2c.2.4.2.9.1 1.4-.1.4-.2.7-.4 1.1-.1.1-.3.2-.1.1-.1.4-.3.8-.1 1.2.2.4.2.8.3 1.2 0 .2.1.8.2.3.1-.7 0-1.3.2-2 0-.4.4-.2.2.1 0 .4-.1.8-.1 1.2-.1.4-.1.9-.1 1.3.4.1.8 0 1.2 0 .5.1.9.1 1.4.1H25c.3 0 .7.2.9.2zm-16.3-.8c0 .2.1.4 0 0zm11.5.1c-.1 0 0 .1 0 0zm-11.5-.1c0-.2.1.1 0 0zm.1-.2c-.1-.2-.1.1 0 0zM26 25c-.1-.2-.1.2 0 0zm-9.4-5.5c.2-.1-.3-.3-.3-.5-.2-.4-.1-.8 0-1.2 0-.2.2-.7-.1-.3-.2.2-.4.6-.4.8-.1.4.1.8.4 1 .1.1.2.4.4.2zm.7 0c.1-.4.4-.7.8-.7.5.3.3-.5.2-.8-.1-.3-.6-.3-.9-.4-.2 0-.6-.4-.7-.2.1.2.1.1 0 .3 0 .4-.2.8-.1 1.2.1.2.4.6.7.6zm2.8-1.2c.2-.2.7.1.7 0-.1-.2 0-.7-.3-.3-.1.3-.6 0-.6.1.1.2 0 .6.2.2zm0-.6c.4-.2.5-.7 1-.7.4-.1.7-.5 1-.8l.7-.7c.3-.3.5-.7.7-1 .2-.3.3-.7.4-1 .1-.5.2-.9.2-1.4v-1c0-.6-.1-1.1-.1-1.7-.1-.4.1-.8.4-1.1.3-.3.3-.6.3-.9.5-.3-.2-.6.1-1 .2-.2-.4-.5.1-.7.3-.3.2-.8-.1-1-.2-.1 0-.5-.2-.7.1-.3-.3-.5-.4-.9 0-.2 0-.4-.2-.4 0-.4-.4-.5-.4-.8-.4-.1-.7-.3-1.1-.4-.5-.5-.8-.1-1 0-.4-.1-.9 0-1.1-.4-.3-.3-.8.2-1-.2-.4.1-.8 0-1.2-.1-.4.1-.8-.2-1.1-.1-.3 0-.7.5-.9.1-.3-.1-.6.2-.8.3-.3-.2-.6.2-.8.2-.3.1-.6.1-.8.5-.3.2-.6.3-.8.5 0 .2 0 .6-.4.4-.3.3-.4.7-.7 1-.2.1-.4.5-.3.7.3.3-.4.4-.2.6 0 .4.2.8 0 1.2-.1.4.2.7.4 1 0 .4 0 .6.3.9.1.3.5.3.5.7.1.6-.6.3-.9.4-.3 0-.6.2-.5.5-.2.3-.1.6 0 .9.1.4.4.9.9.9.2 0 .8-.5.8 0-.1.5.1 1 .2 1.5.1.3.2.7.4.9.1.3.4.5.5.8.2.3.5.6.8.9.2.2.5.5.8.7.5.4 1 .7 1.5.9.3.1.6.2.9.2.3.1 0-.5.2-.7 0-.3.1-.7.4-.9.3-.1.9 0 1 .4.1.5.1 1 .2 1.4.1.3.2.2.3.1zm-1.2-2.2c-.4-.1 0-.4.2-.2.3-.1.8.2.9-.2.3.1 0 .6-.3.5-.3-.1-.6-.1-.8-.1zm-1.7-.3c-.4 0-.1-.3.1-.3.4 0 .9-.2 1.2-.4.4-.2.8-.4 1.2-.3.3.1.8.1.9-.2.1-.4.4.2.1.3-.3.4-.8.2-1.2.2-.5 0-.8.3-1.3.4-.3.2-.4.2-.7.2-.1.2-.2.2-.3.1zm1.9-2.3c-.2-.4.4-.4.7-.5.4 0 .6-.2.4-.6-.2-.2-.2-.5-.4-.8-.2-.5-.3-.9-.4-1.4-.1-.2.2-.7.2-.4 0 .4.1.9.2 1.3.1.3.3.7.5 1 .2.3.4.7.2 1.1-.2.2-.7.3-1 .4-.1-.2-.3 0-.4-.1zm-6.7-2.1c-.2-.2-.5-.4-.7-.5.1-.4.7-.1.9.1.3.2 0 .5-.2.4zm4.3-1c-.4 0-.3-.7.1-.5.6-.1.3.6-.1.5zm4.6-.2c-.4-.2-.1-.6.3-.5.5-.2.4.5 0 .5h-.3zM15 8.7c0-.3.2-.6.4-.8.3-.3.7-.5 1-.7.4.4-.4.6-.6.8-.4.1-.5.5-.8.7zm-2.4-.9c-.1-.2-.3-.3-.2-.6 0-.3.5.2.2.3.1.1.4.2.1.3h-.1zm10-.1c-.3-.2-.7-.3-1.1-.3-.5.1-.3-.7.1-.5.5 0 1 .2 1.2.6 0 .2-.1.2-.2.2zm-.8-.5c-.2-.1.1 0 0 0zm-.3 0c-.2-.1 0 0 0 0zM12 6.1c-.1-.2-.2-.5 0-.6-.1-.4.5-.4.2-.1.3.2.1.4-.1.4 0 .2.1.5-.1.3zm11.9-.5c-.1-.2.3-.4 0-.5-.2-.3.6-.5.2-.1.1 0 .3.3.1.5-.1 0-.2.2-.3.1zM12.6 4.1c-.3-.4.2-.6.4-.7.1-.3.4-.1.2.1-.1.3-.8.1-.5.6-.1.1-.1 0-.1 0zm1.2-.1c-.1-.3.3-.5.5-.6.3 0 .2.8 0 .3 0-.3-.5.2-.5.3 0 .1 0 .1 0 0zm10-.1c-.3-.1-.4-.5-.5-.6.2-.2 1-.1.5.1-.5.1.6.4 0 .5zm-8.2-1.2c-.1-.3.3-.7.6-.5.2.2-.1.3-.2.1-.3.2-.2.5-.4.4zm6.8-.1c-.2-.2-.7.1-.7-.2.3-.1.5-.4 0-.4-.2.2-.5-.1-.2-.2.4-.2.7.3.6.5.2.1.7 0 .3.3zm-8.1-.3c0-.3.6-.5.9-.5.2.1.1.5 0 .4-.1-.3-.5.3-.5-.1-.3.1-.2.3-.4.2zm5.2-.3c-.2-.2.4-.4 0-.4-.3-.1-.2.4-.4.1 0-.4.8-.2.8.1.6-.1-.2.3-.4.2zm-1.8 0c-.3.1-.6-.3-.2-.4-.1-.3-.5.2-.6.1 0-.3.6-.5.8-.3 0 .2-.3.4.1.4.3-.3.2.3-.1.2zM16 1.5c-.2-.3.7-.2.3-.1-.2 0-.1.2-.3.1zm2.5-.1c-.4-.3.4-.1 0 0zm2.2 16.1c0-.1-.1.1 0 0zm3.9-6.4c.3-.2.7-.2.7-.6 0-.4-.2-.7-.1-1 0-.3 0-.5-.1-.8-.3-.4-1 0-.7.5.1.2 0 .5.2.3.4-.1.5.6.2.8-.2-.1-.1-.4-.3-.2-.1.3-.2.9.1 1zM11 9.5c0-.2-.1.3 0 0zm.2-.3c.2-.2.1-.2 0 0-.1.1-.1.2 0 0zm.6-1.1c-.1-.1.1.1 0 0zm-.5-1.6c-.1 0 0 .1 0 0zm0-.1c0-.2-.1.1 0 0zM11.2 5c0-.1 0 0 0 0zm.1-.1c-.1 0 0 .1 0 0zM23.6 2c0-.3 0 .1 0 0zM14 1.3c-.1 0 0 .1 0 0zm.8-.3c.1-.1-.3.2 0 0zm.6-.1c.1-.1-.2.1 0 0zm.2-.1c-.1 0 0 0 0 0zm.1-.1c.2-.2-.3.1 0 0zm.2-.1c.4-.1-.4.1 0 0zm1 0c-.1-.1.1 0 0 0zm.3-.1c.5 0-.3-.1-.1 0h.1zM7.6 18c-.3-.1-.6-.4-.4-.7.1-.4.7-.5 1-.3.4.3.1.9-.3 1h-.3zm.3-.4c.3-.1.1-.5-.1-.4-.3-.2-.4.6 0 .4h.1zm-1.1-1c-.4.1-.3-.5-.1-.8.1-.2 0-.3.2-.4.1-.2.4-.4.6-.6.2-.2.5-.3.5-.7.1-.4-.4-.7-.8-.7-.6-.1-.7.7-.3 1 .1.4-.6.4-.9.5-.4.3-1 0-.9-.6 0-.4 0-.7.1-1.1.2-.4.5-.7.8-.8.7-.4 1.6-.4 2.3-.1.4.2.7.5.8.9.2.4.1.9 0 1.3l-.3.6c-.2.3-.5.5-.8.7-.4 0 0 .5-.4.5-.1.1-.5.4-.8.3zm.3-.4c.2-.1.6-.1.5-.4.3-.2.7-.3.8-.7.3-.2.4-.5.5-.8.2-.3.2-.7.1-.9 0-.3-.3-.4-.6-.6-.3-.2-.7-.4-1.1-.3-.6 0-1.2.2-1.6.7-.2.2-.4.6-.3.9 0 .4.3.8.6.5.3-.1.5-.2.3-.5-.2-.2-.2-.5 0-.8.2-.3.6-.4.9-.4.1 0 .3 0 .4.1.3.2.7.4.7.8.1.3-.1.7-.3.9-.2.2-.5.4-.7.6-.1.3-.3.5-.3.7 0 .2-.1.4.1.2zm21.3-2.6c-.3-.1-.5-.5-.4-.8.2-.4.7-.5 1-.2.1.1.2.3.1.5-.1.3-.3.7-.7.5zm.4-.3c.3-.3-.3-.6-.4-.3-.3.1.3.5.4.3zm.4-1.5c-.3-.1-.9.1-1.1-.2-.2-.4.1-.8.2-1.1.2-.3.6-.5.9-.5.4 0 .8-.1 1.2-.1.2-.1.7-.4.6-.8 0-.4-.3-.7-.6-.8-.4-.1-.8-.2-1.1.1-.2.1-.2.7-.5.6-.3-.1-.6-.3-.9-.4-.1-.3-.2-.7 0-1.1.2-.3.5-.6.9-.7.5-.2 1.1-.1 1.7 0 .3 0 .7.2 1 .3.4.1.7.3 1 .6.3.3.5.7.5 1.1.1.3 0 .7-.1 1-.2.6-.7 1-1.3 1.2-.7.3-1.6.4-2.4.5.2.2.3.4 0 .3zm-.1-.3c-.1-.2-.1-.4.2-.5.4 0 .8 0 1.2-.1.6-.1 1.2-.2 1.7-.6.2-.2.5-.5.5-.9.1-.3.1-.6 0-.8-.1-.2-.2-.5-.4-.6-.2-.1-.4-.3-.6-.5-.3-.2-.7-.3-1.1-.4-.3 0-.7-.1-1-.1-.5 0-1.2.2-1.4.8-.1.4.3.6.6.7.3.1.1-.4.4-.4.3-.3.7-.3 1.1-.2.4.1.7.2.9.4.2.2.3.5.3.7 0 .4-.1.8-.4 1.1-.3.1-.5.3-.9.3-.5 0-.9.1-1.4.2-.3.2-.4.6-.4.9 0 .2.4.1.5.1 0-.1.2 0 .2-.1z" fill="#d230f9"/></g></svg>