<svg width="250" height="250" viewBox="0 0 250 250" fill="none" xmlns="http://www.w3.org/2000/svg">
<path d="M216.866 220.495C216.866 190.236 199.367 157.268 199.367 157.268C192.586 143.688 184.902 128.299 168.446 119.224C168.14 119.055 166.57 118.283 166.052 118.039L148.182 109.813L139.597 102.574L125.803 116.295L131.481 157.225L125.001 159.013L118.521 157.225L124.201 116.295L110.406 102.574L101.819 109.813L83.9477 118.039C83.4286 118.283 81.8591 119.056 81.5544 119.224C65.0986 128.298 57.4132 143.688 50.6326 157.268C50.6326 157.268 36.0001 187.17 33.1344 220.495C33.1036 220.85 33.0962 221.208 33.0962 221.566C33.0962 231.433 41.6351 239.459 52.1308 239.459C52.8964 239.459 53.6609 239.4 54.418 239.284C59.7175 238.468 64.2816 236.773 68.3887 234.637L123.209 249.756C123.347 249.795 123.486 249.823 123.625 249.849L123.689 249.861C123.8 249.885 123.912 249.91 123.993 249.92C124.346 249.973 124.675 249.999 125.001 249.999C125.327 249.999 125.656 249.973 125.974 249.924C126.093 249.91 126.21 249.886 126.367 249.851C126.51 249.824 126.654 249.795 126.793 249.758L181.613 234.637C185.719 236.772 190.283 238.469 195.582 239.284C196.339 239.401 197.104 239.459 197.87 239.459C208.365 239.459 216.904 231.433 216.904 221.567C216.904 221.208 216.866 220.852 216.866 220.495ZM118.264 234.417L82.5112 224.556C86.6383 219.349 86.9401 211.829 82.7868 206.244C80.7386 203.49 77.9254 201.645 74.8612 200.768V159.157L118.263 171.127L118.264 234.417ZM175.139 200.769C172.074 201.643 169.261 203.49 167.212 206.246C163.059 211.83 163.36 219.35 167.487 224.557L131.736 234.418V171.129L175.137 159.158L175.139 200.769Z" fill="black"/>
<path d="M125 102.573C143.096 102.573 167.372 79.9644 167.784 42.0526C168.047 15.7445 155.518 0 125 0C94.4799 0 81.9486 15.7445 82.2156 42.0526C82.6269 79.965 103.819 102.573 125 102.573ZM116.399 52.6191C138.526 54.9759 157.817 24.0312 157.503 51.7377C157.316 68.3237 141.929 93.3681 125.002 93.3681C107.234 93.3681 94.9763 72.554 92.5031 51.7468C89.8205 29.1818 131.237 34.3233 116.399 52.6191Z" fill="black"/>
</svg>
