<svg width="250" height="250" viewBox="0 0 250 250" fill="none" xmlns="http://www.w3.org/2000/svg">
<path d="M177.685 26.4648C162.451 11.9141 142.383 4.44335 121.338 5.46874C83.4471 7.22655 52.3435 37.0117 49.0232 74.7559C47.2166 94.9219 53.3201 114.6 66.1131 130.127C79.0037 145.801 89.5506 173.584 89.5506 192.09C89.5506 192.09 88.5252 198.828 94.6287 199.121H155.517C162.158 198.633 160.595 190.82 160.595 190.82C160.595 172.754 170.898 145.752 183.594 130.615C195.068 116.943 201.367 99.5605 201.367 81.7383C201.318 60.6445 192.92 41.0156 177.685 26.4648ZM120.996 188.916L109.277 117.676H140.771L129.053 188.916H120.996ZM175.732 124.023C161.914 140.479 151.025 168.555 150.39 188.867H139.355L151.806 113.379C152.148 111.816 151.465 107.715 146.777 107.471H103.32C98.8279 107.617 97.949 111.865 98.2908 113.379L110.742 188.867H99.658C98.6326 168.213 87.6951 140.234 73.9744 123.584C62.8904 110.156 57.617 93.1152 59.1795 75.5859C62.0115 42.9687 88.9646 17.1875 121.777 15.625C140.088 14.7461 157.422 21.2402 170.605 33.8379C183.838 46.4355 191.113 63.4277 191.113 81.6895C191.162 97.168 185.693 112.207 175.732 124.023Z" fill="#681186"/>
<path d="M156.103 211.865H93.896C91.064 211.865 88.8179 214.16 88.8179 216.943C88.8179 219.775 91.1128 222.021 93.896 222.021H98.6323C100.634 234.766 111.669 244.58 125 244.58C138.33 244.58 149.365 234.766 151.367 222.021H156.103C158.935 222.021 161.181 219.727 161.181 216.943C161.181 214.16 158.935 211.865 156.103 211.865ZM125 234.424C117.675 234.424 111.474 229.639 109.326 223.047H140.673C138.525 229.639 132.324 234.424 125 234.424Z" fill="#681186"/>
</svg>
