<svg width="150" height="34" viewBox="0 0 150 34" fill="none" xmlns="http://www.w3.org/2000/svg">
<rect width="80" height="34" fill="#681186"/>
<path d="M6.25879 9.83398H7.80566L9.66895 18.7285C9.8916 19.9824 10.0439 20.8789 10.126 21.418H10.2314C10.5244 20.0117 10.7119 19.1152 10.7939 18.7285L12.9209 9.83398H14.4326L16.5947 18.7285C16.7588 19.4668 16.9463 20.3633 17.1572 21.418H17.2275C17.2393 21.3008 17.3975 20.4043 17.7021 18.7285L19.583 9.83398H21.1299L18.0361 23H16.3838L14.2568 14.2109C13.9404 12.6758 13.7646 11.8145 13.7295 11.627H13.6592C13.6006 11.9434 13.501 12.4121 13.3604 13.0332C13.2197 13.6543 13.1318 14.0469 13.0967 14.2109L11.0049 23H9.35254L6.25879 9.83398ZM23.1338 23V9.83398H27.9854C29.2627 9.83398 30.2295 10.1387 30.8857 10.748C31.5537 11.3574 31.8877 12.1777 31.8877 13.209C31.8877 13.9121 31.7061 14.5098 31.3428 15.002C30.9912 15.4824 30.54 15.8457 29.9893 16.0918C30.6572 16.291 31.2197 16.6777 31.6768 17.252C32.1455 17.8262 32.3799 18.5176 32.3799 19.3262C32.3799 20.334 32.0459 21.2012 31.3779 21.9277C30.7217 22.6426 29.8018 23 28.6182 23H23.1338ZM24.54 21.8047H28.2666C29.0283 21.8047 29.6611 21.5879 30.165 21.1543C30.6807 20.709 30.9385 20.1055 30.9385 19.3438C30.9385 18.6172 30.6865 18.0137 30.1826 17.5332C29.6904 17.0527 29.0283 16.8125 28.1963 16.8125H24.54V21.8047ZM24.54 15.6348H27.7393C28.5244 15.6348 29.1689 15.4414 29.6729 15.0547C30.1885 14.668 30.4463 14.0879 30.4463 13.3145C30.4463 12.6348 30.2354 12.084 29.8135 11.6621C29.4033 11.2402 28.7354 11.0293 27.8096 11.0293H24.54V15.6348ZM39.4814 23V9.83398H44.4385C45.7158 9.83398 46.7236 10.1855 47.4619 10.8887C48.2119 11.5918 48.5869 12.5234 48.5869 13.6836C48.5869 14.8789 48.2061 15.8223 47.4443 16.5137C46.6826 17.2051 45.6807 17.5508 44.4385 17.5508H40.8877V23H39.4814ZM40.8877 16.373H44.2275C45.1533 16.373 45.8682 16.1504 46.3721 15.7051C46.8877 15.248 47.1455 14.5742 47.1455 13.6836C47.1455 12.8164 46.8877 12.1602 46.3721 11.7148C45.8682 11.2578 45.1416 11.0293 44.1924 11.0293H40.8877V16.373ZM52.5244 16.1094H56.0752C56.9541 16.1094 57.6279 15.875 58.0967 15.4062C58.5771 14.9375 58.8174 14.3164 58.8174 13.543C58.8174 12.793 58.5654 12.1895 58.0615 11.7324C57.5693 11.2637 56.8604 11.0293 55.9346 11.0293H52.5244V16.1094ZM51.1182 23V9.83398H56.251C57.54 9.83398 58.5303 10.1855 59.2217 10.8887C59.9131 11.5801 60.2588 12.4355 60.2588 13.4551C60.2588 14.3809 60.0244 15.1309 59.5557 15.7051C59.0869 16.2793 58.5713 16.6426 58.0088 16.7949C58.501 17.0527 58.8584 17.3691 59.0811 17.7441C59.3037 18.1191 59.4854 18.6406 59.626 19.3086C59.7783 19.9648 59.8838 20.416 59.9424 20.6621C60.0127 20.8965 60.1299 21.2363 60.2939 21.6816C60.4697 22.127 60.6807 22.5664 60.9268 23H59.3447C59.1455 22.625 58.9639 22.2266 58.7998 21.8047C58.6475 21.3711 58.5361 21.0195 58.4658 20.75C58.3955 20.4688 58.29 20.0234 58.1494 19.4141C57.9971 18.7578 57.7627 18.2422 57.4463 17.8672C57.1416 17.4922 56.6494 17.3047 55.9697 17.3047H52.5244V23H51.1182ZM62.0869 16.4258C62.0869 14.3633 62.585 12.6992 63.5811 11.4336C64.5771 10.1562 65.9072 9.51758 67.5713 9.51758C69.2471 9.51758 70.5713 10.1504 71.5439 11.416C72.5283 12.6816 73.0205 14.3574 73.0205 16.4434C73.0205 18.5527 72.5225 20.2285 71.5264 21.4707C70.542 22.7012 69.2236 23.3164 67.5713 23.3164C65.9072 23.3164 64.5771 22.6953 63.5811 21.4531C62.585 20.1992 62.0869 18.5234 62.0869 16.4258ZM63.5283 16.4258C63.5283 18.1602 63.8916 19.543 64.6182 20.5742C65.3447 21.5938 66.3291 22.1035 67.5713 22.1035C68.79 22.1035 69.7627 21.5996 70.4893 20.5918C71.2158 19.584 71.5791 18.2012 71.5791 16.4434C71.5791 14.709 71.2275 13.3203 70.5244 12.2773C69.8213 11.2344 68.8369 10.7129 67.5713 10.7129C66.3291 10.7129 65.3447 11.2285 64.6182 12.2598C63.8916 13.291 63.5283 14.6797 63.5283 16.4258Z" fill="black"/>
<path d="M96.57 9.76H87.246V11.56H91.008V22H92.808V11.56H96.57V9.76ZM101.818 13H96.5624V22H98.3624V14.8H101.818V13ZM110.252 20.2V13H103.772V14.8H108.452V16.78C107.912 16.24 107.21 15.88 105.95 15.88C103.754 15.88 102.728 17.284 102.728 18.94C102.728 20.596 103.754 22 105.95 22C107.21 22 107.912 21.64 108.452 21.1V22H111.332V20.2H110.252ZM106.49 20.2C105.176 20.2 104.528 19.93 104.528 18.94C104.528 17.95 105.176 17.68 106.49 17.68C107.804 17.68 108.452 17.95 108.452 18.94C108.452 19.93 107.804 20.2 106.49 20.2ZM113.125 9.4V11.2H114.925V9.4H113.125ZM113.125 13V22H114.925V13H113.125ZM124.654 13H117.094V22H118.894V14.8H122.854V22H124.654V13ZM126.819 9.4V11.2H128.619V9.4H126.819ZM126.819 13V22H128.619V13H126.819ZM138.347 13H130.787V22H132.587V14.8H136.547V22H138.347V13ZM146.776 13V14.08C146.236 13.486 145.354 13 144.094 13C141.178 13 140.152 14.854 140.152 17.14C140.152 19.426 141.178 21.28 144.094 21.28C145.354 21.28 146.236 20.794 146.776 20.2V23.08H141.736V24.88H148.576V13H146.776ZM144.364 19.48C142.6 19.48 141.952 18.94 141.952 17.14C141.952 15.34 142.6 14.8 144.364 14.8C146.128 14.8 146.776 15.34 146.776 17.14C146.776 18.94 146.128 19.48 144.364 19.48Z" fill="white"/>
</svg>
